<svg width="375" height="136" viewBox="0 0 375 136" fill="none" xmlns="http://www.w3.org/2000/svg">
<g filter="url(#filter0_d_2740_3070)">
<path d="M-31.7779 37.2574H-35V154L474.5 154.006V37.2574H231.9C231.9 37.2574 205.134 33.8157 197.3 52.1047C193.547 60.8654 191.48 66.3858 190.228 70.1072C189.109 73.4297 186.374 89.79 167.895 91.7928C149.416 93.7956 139.178 91.7928 139.178 91.7928C139.178 91.7928 122.829 90.2652 117.339 72.6796C111.849 55.0939 105.799 36.4996 85.545 37.0946C65.291 37.6894 -31.7779 37.2574 -31.7779 37.2574Z" fill="white"/>
</g>
<path d="M239.833 87.5007C239.054 87.5007 238.387 87.2232 237.832 86.6684C237.278 86.1135 237 85.4465 237 84.6673V67.6673C237 66.8882 237.278 66.2211 237.832 65.6663C238.387 65.1114 239.054 64.834 239.833 64.834H256.833C257.613 64.834 258.28 65.1114 258.835 65.6663C259.389 66.2211 259.667 66.8882 259.667 67.6673V84.6673C259.667 85.4465 259.389 86.1135 258.835 86.6684C258.28 87.2232 257.613 87.5007 256.833 87.5007H239.833ZM239.833 84.6673H256.833V67.6673H239.833V84.6673ZM234.167 93.1673C233.388 93.1673 232.721 92.8899 232.166 92.335C231.611 91.7802 231.333 91.1132 231.333 90.334V70.5007H234.167V90.334H254V93.1673H234.167Z" fill="black"/>
<path d="M324.104 93.1673L323.538 88.634C323.231 88.5159 322.942 88.3743 322.67 88.209C322.398 88.0437 322.133 87.8666 321.873 87.6777L317.659 89.4486L313.763 82.7194L317.411 79.9569C317.387 79.7916 317.375 79.6322 317.375 79.4788V78.5225C317.375 78.3691 317.387 78.2097 317.411 78.0444L313.763 75.2819L317.659 68.5527L321.873 70.3236C322.133 70.1347 322.404 69.9576 322.688 69.7923C322.971 69.627 323.254 69.4854 323.538 69.3673L324.104 64.834H331.896L332.463 69.3673C332.77 69.4854 333.059 69.627 333.33 69.7923C333.602 69.9576 333.868 70.1347 334.127 70.3236L338.342 68.5527L342.238 75.2819L338.59 78.0444C338.613 78.2097 338.625 78.3691 338.625 78.5225V79.4788C338.625 79.6322 338.602 79.7916 338.554 79.9569L342.202 82.7194L338.306 89.4486L334.127 87.6777C333.868 87.8666 333.596 88.0437 333.313 88.209C333.029 88.3743 332.746 88.5159 332.463 88.634L331.896 93.1673H324.104ZM326.584 90.334H329.381L329.877 86.5798C330.609 86.3909 331.288 86.1135 331.914 85.7475C332.539 85.3816 333.112 84.9388 333.631 84.4194L337.138 85.8715L338.519 83.4632L335.473 81.1611C335.591 80.8305 335.674 80.4822 335.721 80.1163C335.768 79.7503 335.792 79.3784 335.792 79.0007C335.792 78.6229 335.768 78.251 335.721 77.885C335.674 77.5191 335.591 77.1708 335.473 76.8402L338.519 74.5382L337.138 72.1298L333.631 73.6173C333.112 73.0743 332.539 72.6197 331.914 72.2538C331.288 71.8878 330.609 71.6104 329.877 71.4215L329.417 67.6673H326.619L326.123 71.4215C325.391 71.6104 324.712 71.8878 324.087 72.2538C323.461 72.6197 322.888 73.0625 322.369 73.5819L318.863 72.1298L317.481 74.5382L320.527 76.8048C320.409 77.159 320.327 77.5132 320.279 77.8673C320.232 78.2215 320.209 78.5993 320.209 79.0007C320.209 79.3784 320.232 79.7444 320.279 80.0986C320.327 80.4527 320.409 80.8069 320.527 81.1611L317.481 83.4632L318.863 85.8715L322.369 84.384C322.888 84.927 323.461 85.3816 324.087 85.7475C324.712 86.1135 325.391 86.3909 326.123 86.5798L326.584 90.334ZM328.071 83.959C329.44 83.959 330.609 83.475 331.577 82.5069C332.545 81.5388 333.029 80.3701 333.029 79.0007C333.029 77.6312 332.545 76.4625 331.577 75.4944C330.609 74.5263 329.44 74.0423 328.071 74.0423C326.678 74.0423 325.503 74.5263 324.547 75.4944C323.591 76.4625 323.113 77.6312 323.113 79.0007C323.113 80.3701 323.591 81.5388 324.547 82.5069C325.503 83.475 326.678 83.959 328.071 83.959Z" fill="black"/>
<path d="M33.6429 92.2222H39.1071V80.8889H50.0357V92.2222H55.5V75.2222L44.5714 66.7222L33.6429 75.2222V92.2222ZM30 96V73.3333L44.5714 62L59.1429 73.3333V96H46.3929V84.6667H42.75V96H30Z" fill="black"/>
<g filter="url(#filter1_d_2740_3070)">
<ellipse cx="155" cy="53" rx="25" ry="26" fill="#F5AD0B"/>
</g>
<path d="M145.083 67.1673C144.304 67.1673 143.637 66.8899 143.082 66.335C142.527 65.7802 142.25 65.1132 142.25 64.334V44.5007C142.25 43.7215 142.527 43.0545 143.082 42.4996C143.637 41.9447 144.304 41.6673 145.083 41.6673H146.5V38.834H149.333V41.6673H160.667V38.834H163.5V41.6673H164.917C165.696 41.6673 166.363 41.9447 166.918 42.4996C167.473 43.0545 167.75 43.7215 167.75 44.5007V64.334C167.75 65.1132 167.473 65.7802 166.918 66.335C166.363 66.8899 165.696 67.1673 164.917 67.1673H145.083ZM145.083 64.334H164.917V50.1673H145.083V64.334ZM145.083 47.334H164.917V44.5007H145.083V47.334ZM155 55.834C154.599 55.834 154.262 55.6982 153.991 55.4267C153.719 55.1552 153.583 54.8187 153.583 54.4173C153.583 54.0159 153.719 53.6795 153.991 53.4079C154.262 53.1364 154.599 53.0007 155 53.0007C155.401 53.0007 155.738 53.1364 156.009 53.4079C156.281 53.6795 156.417 54.0159 156.417 54.4173C156.417 54.8187 156.281 55.1552 156.009 55.4267C155.738 55.6982 155.401 55.834 155 55.834ZM149.333 55.834C148.932 55.834 148.595 55.6982 148.324 55.4267C148.052 55.1552 147.917 54.8187 147.917 54.4173C147.917 54.0159 148.052 53.6795 148.324 53.4079C148.595 53.1364 148.932 53.0007 149.333 53.0007C149.735 53.0007 150.071 53.1364 150.343 53.4079C150.614 53.6795 150.75 54.0159 150.75 54.4173C150.75 54.8187 150.614 55.1552 150.343 55.4267C150.071 55.6982 149.735 55.834 149.333 55.834ZM160.667 55.834C160.265 55.834 159.929 55.6982 159.657 55.4267C159.386 55.1552 159.25 54.8187 159.25 54.4173C159.25 54.0159 159.386 53.6795 159.657 53.4079C159.929 53.1364 160.265 53.0007 160.667 53.0007C161.068 53.0007 161.405 53.1364 161.676 53.4079C161.948 53.6795 162.083 54.0159 162.083 54.4173C162.083 54.8187 161.948 55.1552 161.676 55.4267C161.405 55.6982 161.068 55.834 160.667 55.834ZM155 61.5007C154.599 61.5007 154.262 61.3649 153.991 61.0934C153.719 60.8218 153.583 60.4854 153.583 60.084C153.583 59.6826 153.719 59.3461 153.991 59.0746C154.262 58.8031 154.599 58.6673 155 58.6673C155.401 58.6673 155.738 58.8031 156.009 59.0746C156.281 59.3461 156.417 59.6826 156.417 60.084C156.417 60.4854 156.281 60.8218 156.009 61.0934C155.738 61.3649 155.401 61.5007 155 61.5007ZM149.333 61.5007C148.932 61.5007 148.595 61.3649 148.324 61.0934C148.052 60.8218 147.917 60.4854 147.917 60.084C147.917 59.6826 148.052 59.3461 148.324 59.0746C148.595 58.8031 148.932 58.6673 149.333 58.6673C149.735 58.6673 150.071 58.8031 150.343 59.0746C150.614 59.3461 150.75 59.6826 150.75 60.084C150.75 60.4854 150.614 60.8218 150.343 61.0934C150.071 61.3649 149.735 61.5007 149.333 61.5007ZM160.667 61.5007C160.265 61.5007 159.929 61.3649 159.657 61.0934C159.386 60.8218 159.25 60.4854 159.25 60.084C159.25 59.6826 159.386 59.3461 159.657 59.0746C159.929 58.8031 160.265 58.6673 160.667 58.6673C161.068 58.6673 161.405 58.8031 161.676 59.0746C161.948 59.3461 162.083 59.6826 162.083 60.084C162.083 60.4854 161.948 60.8218 161.676 61.0934C161.405 61.3649 161.068 61.5007 160.667 61.5007Z" fill="black"/>
<defs>
<filter id="filter0_d_2740_3070" x="-65" y="0" width="569.5" height="177.006" filterUnits="userSpaceOnUse" color-interpolation-filters="sRGB">
<feFlood flood-opacity="0" result="BackgroundImageFix"/>
<feColorMatrix in="SourceAlpha" type="matrix" values="0 0 0 0 0 0 0 0 0 0 0 0 0 0 0 0 0 0 127 0" result="hardAlpha"/>
<feOffset dy="-7"/>
<feGaussianBlur stdDeviation="15"/>
<feColorMatrix type="matrix" values="0 0 0 0 0 0 0 0 0 0 0 0 0 0 0 0 0 0 0.0784314 0"/>
<feBlend mode="normal" in2="BackgroundImageFix" result="effect1_dropShadow_2740_3070"/>
<feBlend mode="normal" in="SourceGraphic" in2="effect1_dropShadow_2740_3070" result="shape"/>
</filter>
<filter id="filter1_d_2740_3070" x="100" y="0" width="110" height="112" filterUnits="userSpaceOnUse" color-interpolation-filters="sRGB">
<feFlood flood-opacity="0" result="BackgroundImageFix"/>
<feColorMatrix in="SourceAlpha" type="matrix" values="0 0 0 0 0 0 0 0 0 0 0 0 0 0 0 0 0 0 127 0" result="hardAlpha"/>
<feOffset dy="3"/>
<feGaussianBlur stdDeviation="15"/>
<feColorMatrix type="matrix" values="0 0 0 0 0 0 0 0 0 0 0 0 0 0 0 0 0 0 0.0784314 0"/>
<feBlend mode="normal" in2="BackgroundImageFix" result="effect1_dropShadow_2740_3070"/>
<feBlend mode="normal" in="SourceGraphic" in2="effect1_dropShadow_2740_3070" result="shape"/>
</filter>
</defs>
</svg>
