<svg width="375" height="142" viewBox="0 0 375 142" fill="none" xmlns="http://www.w3.org/2000/svg">
<g filter="url(#filter0_d_2740_4368)">
<path d="M-104.778 43.0946H-108V159.837L643.722 160.006V43.2574H401.122C401.122 43.2574 374.356 39.8157 366.522 58.1047C362.769 66.8654 360.702 72.3858 359.45 76.1072C358.331 79.4297 355.596 95.79 337.117 97.7928C318.638 99.7956 308.4 97.7928 308.4 97.7928C308.4 97.7928 292.051 96.2652 286.561 78.6796C281.071 61.0939 275.021 42.4996 254.767 43.0946C234.513 43.6894 -104.778 43.0946 -104.778 43.0946Z" fill="white"/>
</g>
<path d="M239.833 93.5007C239.054 93.5007 238.387 93.2232 237.832 92.6684C237.278 92.1135 237 91.4465 237 90.6673V73.6673C237 72.8882 237.278 72.2211 237.832 71.6663C238.387 71.1114 239.054 70.834 239.833 70.834H256.833C257.613 70.834 258.28 71.1114 258.835 71.6663C259.389 72.2211 259.667 72.8882 259.667 73.6673V90.6673C259.667 91.4465 259.389 92.1135 258.835 92.6684C258.28 93.2232 257.613 93.5007 256.833 93.5007H239.833ZM239.833 90.6673H256.833V73.6673H239.833V90.6673ZM234.167 99.1673C233.388 99.1673 232.721 98.8899 232.166 98.335C231.611 97.7802 231.333 97.1132 231.333 96.334V76.5007H234.167V96.334H254V99.1673H234.167Z" fill="black"/>
<g filter="url(#filter1_d_2740_4368)">
<ellipse cx="324" cy="53" rx="25" ry="26" fill="#F5AD0B"/>
</g>
<path d="M320.104 67.1673L319.538 62.634C319.231 62.5159 318.942 62.3743 318.67 62.209C318.398 62.0437 318.133 61.8666 317.873 61.6777L313.659 63.4486L309.763 56.7194L313.411 53.9569C313.387 53.7916 313.375 53.6322 313.375 53.4788V52.5225C313.375 52.3691 313.387 52.2097 313.411 52.0444L309.763 49.2819L313.659 42.5527L317.873 44.3236C318.133 44.1347 318.404 43.9576 318.688 43.7923C318.971 43.627 319.254 43.4854 319.538 43.3673L320.104 38.834H327.896L328.463 43.3673C328.77 43.4854 329.059 43.627 329.33 43.7923C329.602 43.9576 329.868 44.1347 330.127 44.3236L334.342 42.5527L338.238 49.2819L334.59 52.0444C334.613 52.2097 334.625 52.3691 334.625 52.5225V53.4788C334.625 53.6322 334.602 53.7916 334.554 53.9569L338.202 56.7194L334.306 63.4486L330.127 61.6777C329.868 61.8666 329.596 62.0437 329.313 62.209C329.029 62.3743 328.746 62.5159 328.463 62.634L327.896 67.1673H320.104ZM322.584 64.334H325.381L325.877 60.5798C326.609 60.3909 327.288 60.1135 327.914 59.7475C328.539 59.3816 329.112 58.9388 329.631 58.4194L333.138 59.8715L334.519 57.4632L331.473 55.1611C331.591 54.8305 331.674 54.4822 331.721 54.1163C331.768 53.7503 331.792 53.3784 331.792 53.0007C331.792 52.6229 331.768 52.251 331.721 51.885C331.674 51.5191 331.591 51.1708 331.473 50.8402L334.519 48.5382L333.138 46.1298L329.631 47.6173C329.112 47.0743 328.539 46.6197 327.914 46.2538C327.288 45.8878 326.609 45.6104 325.877 45.4215L325.417 41.6673H322.619L322.123 45.4215C321.391 45.6104 320.712 45.8878 320.087 46.2538C319.461 46.6197 318.888 47.0625 318.369 47.5819L314.863 46.1298L313.481 48.5382L316.527 50.8048C316.409 51.159 316.327 51.5132 316.279 51.8673C316.232 52.2215 316.209 52.5993 316.209 53.0007C316.209 53.3784 316.232 53.7444 316.279 54.0986C316.327 54.4527 316.409 54.8069 316.527 55.1611L313.481 57.4632L314.863 59.8715L318.369 58.384C318.888 58.927 319.461 59.3816 320.087 59.7475C320.712 60.1135 321.391 60.3909 322.123 60.5798L322.584 64.334ZM324.071 57.959C325.44 57.959 326.609 57.475 327.577 56.5069C328.545 55.5388 329.029 54.3701 329.029 53.0007C329.029 51.6312 328.545 50.4625 327.577 49.4944C326.609 48.5263 325.44 48.0423 324.071 48.0423C322.678 48.0423 321.503 48.5263 320.547 49.4944C319.591 50.4625 319.113 51.6312 319.113 53.0007C319.113 54.3701 319.591 55.5388 320.547 56.5069C321.503 57.475 322.678 57.959 324.071 57.959Z" fill="black"/>
<path d="M33.6429 98.2222H39.1071V86.8889H50.0357V98.2222H55.5V81.2222L44.5714 72.7222L33.6429 81.2222V98.2222ZM30 102V79.3333L44.5714 68L59.1429 79.3333V102H46.3929V90.6667H42.75V102H30Z" fill="black"/>
<path d="M145.083 99.1673C144.304 99.1673 143.637 98.8899 143.082 98.335C142.527 97.7802 142.25 97.1132 142.25 96.334V76.5007C142.25 75.7215 142.527 75.0545 143.082 74.4996C143.637 73.9447 144.304 73.6673 145.083 73.6673H146.5V70.834H149.333V73.6673H160.667V70.834H163.5V73.6673H164.917C165.696 73.6673 166.363 73.9447 166.918 74.4996C167.473 75.0545 167.75 75.7215 167.75 76.5007V96.334C167.75 97.1132 167.473 97.7802 166.918 98.335C166.363 98.8899 165.696 99.1673 164.917 99.1673H145.083ZM145.083 96.334H164.917V82.1673H145.083V96.334ZM145.083 79.334H164.917V76.5007H145.083V79.334ZM155 87.834C154.599 87.834 154.262 87.6982 153.991 87.4267C153.719 87.1552 153.583 86.8187 153.583 86.4173C153.583 86.0159 153.719 85.6795 153.991 85.4079C154.262 85.1364 154.599 85.0007 155 85.0007C155.401 85.0007 155.738 85.1364 156.009 85.4079C156.281 85.6795 156.417 86.0159 156.417 86.4173C156.417 86.8187 156.281 87.1552 156.009 87.4267C155.738 87.6982 155.401 87.834 155 87.834ZM149.333 87.834C148.932 87.834 148.595 87.6982 148.324 87.4267C148.052 87.1552 147.917 86.8187 147.917 86.4173C147.917 86.0159 148.052 85.6795 148.324 85.4079C148.595 85.1364 148.932 85.0007 149.333 85.0007C149.735 85.0007 150.071 85.1364 150.343 85.4079C150.614 85.6795 150.75 86.0159 150.75 86.4173C150.75 86.8187 150.614 87.1552 150.343 87.4267C150.071 87.6982 149.735 87.834 149.333 87.834ZM160.667 87.834C160.265 87.834 159.929 87.6982 159.657 87.4267C159.386 87.1552 159.25 86.8187 159.25 86.4173C159.25 86.0159 159.386 85.6795 159.657 85.4079C159.929 85.1364 160.265 85.0007 160.667 85.0007C161.068 85.0007 161.405 85.1364 161.676 85.4079C161.948 85.6795 162.083 86.0159 162.083 86.4173C162.083 86.8187 161.948 87.1552 161.676 87.4267C161.405 87.6982 161.068 87.834 160.667 87.834ZM155 93.5007C154.599 93.5007 154.262 93.3649 153.991 93.0934C153.719 92.8218 153.583 92.4854 153.583 92.084C153.583 91.6826 153.719 91.3461 153.991 91.0746C154.262 90.8031 154.599 90.6673 155 90.6673C155.401 90.6673 155.738 90.8031 156.009 91.0746C156.281 91.3461 156.417 91.6826 156.417 92.084C156.417 92.4854 156.281 92.8218 156.009 93.0934C155.738 93.3649 155.401 93.5007 155 93.5007ZM149.333 93.5007C148.932 93.5007 148.595 93.3649 148.324 93.0934C148.052 92.8218 147.917 92.4854 147.917 92.084C147.917 91.6826 148.052 91.3461 148.324 91.0746C148.595 90.8031 148.932 90.6673 149.333 90.6673C149.735 90.6673 150.071 90.8031 150.343 91.0746C150.614 91.3461 150.75 91.6826 150.75 92.084C150.75 92.4854 150.614 92.8218 150.343 93.0934C150.071 93.3649 149.735 93.5007 149.333 93.5007ZM160.667 93.5007C160.265 93.5007 159.929 93.3649 159.657 93.0934C159.386 92.8218 159.25 92.4854 159.25 92.084C159.25 91.6826 159.386 91.3461 159.657 91.0746C159.929 90.8031 160.265 90.6673 160.667 90.6673C161.068 90.6673 161.405 90.8031 161.676 91.0746C161.948 91.3461 162.083 91.6826 162.083 92.084C162.083 92.4854 161.948 92.8218 161.676 93.0934C161.405 93.3649 161.068 93.5007 160.667 93.5007Z" fill="black"/>
<defs>
<filter id="filter0_d_2740_4368" x="-138" y="6" width="811.722" height="177.006" filterUnits="userSpaceOnUse" color-interpolation-filters="sRGB">
<feFlood flood-opacity="0" result="BackgroundImageFix"/>
<feColorMatrix in="SourceAlpha" type="matrix" values="0 0 0 0 0 0 0 0 0 0 0 0 0 0 0 0 0 0 127 0" result="hardAlpha"/>
<feOffset dy="-7"/>
<feGaussianBlur stdDeviation="15"/>
<feColorMatrix type="matrix" values="0 0 0 0 0 0 0 0 0 0 0 0 0 0 0 0 0 0 0.0784314 0"/>
<feBlend mode="normal" in2="BackgroundImageFix" result="effect1_dropShadow_2740_4368"/>
<feBlend mode="normal" in="SourceGraphic" in2="effect1_dropShadow_2740_4368" result="shape"/>
</filter>
<filter id="filter1_d_2740_4368" x="269" y="0" width="110" height="112" filterUnits="userSpaceOnUse" color-interpolation-filters="sRGB">
<feFlood flood-opacity="0" result="BackgroundImageFix"/>
<feColorMatrix in="SourceAlpha" type="matrix" values="0 0 0 0 0 0 0 0 0 0 0 0 0 0 0 0 0 0 127 0" result="hardAlpha"/>
<feOffset dy="3"/>
<feGaussianBlur stdDeviation="15"/>
<feColorMatrix type="matrix" values="0 0 0 0 0 0 0 0 0 0 0 0 0 0 0 0 0 0 0.0784314 0"/>
<feBlend mode="normal" in2="BackgroundImageFix" result="effect1_dropShadow_2740_4368"/>
<feBlend mode="normal" in="SourceGraphic" in2="effect1_dropShadow_2740_4368" result="shape"/>
</filter>
</defs>
</svg>
