<svg width="34" height="35" viewBox="0 0 34 35" fill="none" xmlns="http://www.w3.org/2000/svg">
<rect x="33.1146" y="33.2557" width="32.6205" height="32.6205" rx="9.39076" transform="rotate(180 33.1146 33.2557)" stroke="#F4F5F7" stroke-width="0.988501"/>
<g clip-path="url(#clip0_2740_3155)">
<path d="M11.9224 16.9452C11.9224 16.7177 12.0178 16.4903 12.2082 16.3169L18.2018 10.86C18.583 10.5128 19.2012 10.5128 19.5823 10.86C19.9634 11.207 19.9634 11.7697 19.5823 12.1168L14.2788 16.9452L19.5821 21.7736C19.9633 22.1207 19.9633 22.6834 19.5821 23.0303C19.201 23.3776 18.5829 23.3776 18.2016 23.0303L12.208 17.5735C12.0176 17.4 11.9224 17.1726 11.9224 16.9452V16.9452Z" fill="#222B45"/>
</g>
<path opacity="0.5" d="M23.7239 34.1054H9.88486C4.69848 34.1054 0.494099 29.901 0.494099 24.7146V10.8756C0.494099 5.68921 4.69848 1.48482 9.88486 1.48482H23.7239C28.9103 1.48482 33.1146 5.68921 33.1146 10.8756V24.7146C33.1146 29.901 28.9103 34.1054 23.7239 34.1054Z" stroke="#CED3DE" stroke-width="0.988501"/>
<g clip-path="url(#clip1_2740_3155)">
<path d="M11.9224 16.9452C11.9224 16.7177 12.0178 16.4903 12.2082 16.3169L18.2018 10.86C18.583 10.5128 19.2012 10.5128 19.5823 10.86C19.9634 11.207 19.9634 11.7697 19.5823 12.1168L14.2788 16.9452L19.5821 21.7736C19.9633 22.1207 19.9633 22.6834 19.5821 23.0303C19.201 23.3776 18.5829 23.3776 18.2016 23.0303L12.208 17.5735C12.0176 17.4 11.9224 17.1726 11.9224 16.9452V16.9452Z" fill="#222B45"/>
</g>
<defs>
<clipPath id="clip0_2740_3155">
<rect width="12.6912" height="7.94576" fill="white" transform="matrix(0 1 -1 0 19.8682 10.5996)"/>
</clipPath>
<clipPath id="clip1_2740_3155">
<rect width="12.6912" height="7.94576" fill="white" transform="matrix(0 1 -1 0 19.8682 10.5996)"/>
</clipPath>
</defs>
</svg>
