<svg width="1027" height="1025" viewBox="0 0 1027 1025" fill="none" xmlns="http://www.w3.org/2000/svg">
<rect width="1024" height="1024" fill="url(#paint0_linear_2740_4676)"/>
<g filter="url(#filter0_f_2740_4676)">
<path d="M552.895 800.111C532.971 814.588 505.438 852.232 554.695 886.992C572.972 873.307 598.2 836.771 552.895 800.111Z" fill="black"/>
<path d="M315.599 594.397C311.633 622.265 331.222 655.422 341.513 668.518C336.42 648.138 335.128 614.04 421.472 549.004C490.548 496.975 539.139 427.145 554.8 398.733C568.281 426.602 612.729 495.673 682.67 549.004C752.612 602.335 758.725 652.381 753.039 670.738C813.246 601.195 759.325 526.03 724.838 497.139C619.822 404.255 569.439 290.119 557.375 244.662C509.607 378.008 422.458 460.323 379.248 497.139C336.037 533.956 320.558 559.562 315.599 594.397Z" fill="black"/>
<path d="M403.553 593.372C505.536 514.172 547.024 452.183 555.021 431.088C579.304 488.814 644.802 540.911 709.819 602.763C774.836 664.615 737.05 731.489 711.81 752.239C720.694 699.268 691.191 665.406 675.329 655.096C617.281 616.4 570.937 557.829 555.021 533.381C514.012 581.751 478.679 619.419 426.336 655.096C384.462 683.638 381.402 732.803 385.107 753.818C315.013 684.352 368.199 617.91 403.553 593.372Z" fill="black"/>
<path d="M440.436 673.753C495.206 636.933 539.002 584.568 554.053 562.988C576.529 600.061 635.787 652.278 662.606 673.753C735.657 757.234 688.079 798.851 655.159 809.224C663.805 767.143 633.139 732.653 616.725 720.668C586.422 696.966 562.317 668.443 554.053 657.144C541.517 677.423 504.764 705.352 487.677 720.668C448.936 750.506 442.29 790.65 445.519 810.402C399.082 808.698 371.973 719.778 440.436 673.753Z" fill="black"/>
<path d="M499.202 737.929C534.257 710.925 553.948 685.395 553.948 685.395C553.948 685.395 571.878 712.313 602.577 737.929C670.447 805.33 626.914 845.803 595.532 854.045C598.825 825.442 583.208 805.451 574.989 799.031L553.01 777.895L529.059 799.031C505.559 818.109 502.7 842.344 505.559 854.045C433.45 825.733 471.276 764.838 499.202 737.929Z" fill="black"/>
</g>
<path opacity="0.7" d="M1026.39 541.837L523.935 190.359V1024.6H1026.39V541.837Z" fill="url(#paint1_linear_2740_4676)"/>
<path d="M519.38 745.131C499.457 759.608 471.923 797.252 521.18 832.012C539.457 818.326 564.686 781.79 519.38 745.131Z" fill="#242328"/>
<path d="M282.085 539.417C278.118 567.284 297.707 600.442 307.998 613.537C302.905 593.157 301.613 559.06 387.958 494.023C457.034 441.994 505.624 372.164 521.285 343.753C534.766 371.622 579.214 440.692 649.156 494.023C719.097 547.354 725.21 597.401 719.524 615.758C779.732 546.215 725.81 471.049 691.323 442.159C586.308 349.274 535.925 235.139 523.86 189.682C476.093 323.028 388.944 405.343 345.733 442.159C302.522 478.975 287.043 504.582 282.085 539.417Z" fill="url(#paint2_linear_2740_4676)"/>
<path d="M370.039 538.392C472.021 459.192 513.51 397.202 521.506 376.107C545.79 433.834 611.287 485.931 676.304 547.782C741.322 609.634 703.535 676.508 678.296 697.259C687.179 644.288 657.676 610.425 641.814 600.116C583.766 561.42 537.422 502.849 521.506 478.4C480.497 526.771 445.164 564.439 392.822 600.116C350.947 628.657 347.888 677.823 351.592 698.838C281.498 629.372 334.684 562.929 370.039 538.392Z" fill="url(#paint3_linear_2740_4676)"/>
<path d="M406.921 618.772C461.692 581.952 505.487 529.588 520.538 508.008C543.015 545.081 602.272 597.298 629.092 618.772C702.142 702.253 654.564 743.87 621.644 754.244C630.29 712.163 599.624 677.673 583.21 665.688C552.907 641.986 528.803 613.463 520.538 602.164C508.002 622.442 471.249 650.372 454.162 665.688C415.422 695.525 408.775 735.67 412.004 755.421C365.568 753.717 338.458 664.797 406.921 618.772Z" fill="url(#paint4_linear_2740_4676)"/>
<path d="M465.688 682.948C500.743 655.944 520.434 630.414 520.434 630.414C520.434 630.414 538.363 657.332 569.062 682.948C636.932 750.349 593.399 790.822 562.017 799.064C565.31 770.461 549.694 750.47 541.474 744.05L519.495 722.914L495.545 744.05C472.044 763.129 469.185 787.363 472.044 799.064C399.936 770.752 437.761 709.857 465.688 682.948Z" fill="url(#paint5_linear_2740_4676)"/>
<path d="M271.2 961V898.2L260.5 937.5H252.2L241.5 898.2V961H233.5V891H247.6L256.7 926.8L265.7 891H279.5V961H271.2ZM325.488 961C324.622 961 323.655 960.733 322.588 960.2C321.588 959.667 320.722 958.933 319.988 958C318.455 960 316.422 961 313.888 961H306.988C301.922 961 298.222 960 295.888 958C293.622 955.933 292.488 952.433 292.488 947.5V945.5C292.488 935.167 297.355 930 307.088 930H317.488V925C317.488 922.933 316.855 921.333 315.588 920.2C314.322 919.067 312.455 918.5 309.988 918.5H296.488V911H308.988C314.788 911 319.055 912.267 321.788 914.8C324.588 917.333 325.988 921.4 325.988 927V951C325.988 952 326.355 952.767 327.088 953.3C327.888 953.767 329.188 954 330.988 954V961H325.488ZM312.888 953.5C314.888 953.5 316.155 953.033 316.688 952.1C317.222 951.167 317.488 949.967 317.488 948.5V937.5H306.988C305.255 937.5 303.822 938.067 302.688 939.2C301.555 940.333 300.988 941.767 300.988 943.5V948.5C300.988 950.233 301.388 951.5 302.188 952.3C302.988 953.1 304.255 953.5 305.988 953.5H312.888ZM367.861 961L358.361 942.5L348.361 961H338.961L353.461 935.2L340.161 911H349.961L358.561 927.5L367.261 911H376.561L363.061 934.8L377.861 961H367.861ZM388.848 900V891H398.348V900H388.848ZM389.348 961V911H397.848V961H389.348ZM413.859 911H421.859V913.4C423.926 911.8 426.593 911 429.859 911H430.459C436.526 911 440.859 912.533 443.459 915.6C445.926 912.533 449.359 911 453.759 911H454.359C459.759 911 463.759 912.267 466.359 914.8C469.026 917.333 470.359 921.4 470.359 927V961H461.859V925C461.859 923 461.259 921.433 460.059 920.3C458.926 919.1 457.359 918.5 455.359 918.5H452.759C450.693 918.5 449.126 919.133 448.059 920.4C447.059 921.6 446.493 922.9 446.359 924.3V961H437.859V925C437.859 923 437.293 921.433 436.159 920.3C435.026 919.1 433.459 918.5 431.459 918.5H428.859C426.726 918.5 425.093 919.067 423.959 920.2C422.893 921.267 422.359 922.433 422.359 923.7V961H413.859V911ZM485.332 900V891H494.832V900H485.332ZM485.832 961V911H494.332V961H485.832ZM536.444 958.7C534.244 960.233 531.577 961 528.444 961H526.344C520.477 961 516.177 959.767 513.444 957.3C510.71 954.767 509.344 950.667 509.344 945V927C509.344 921.4 510.71 917.333 513.444 914.8C516.244 912.267 520.544 911 526.344 911H535.944V891H544.444V961H536.444V958.7ZM529.444 953.5C531.644 953.5 533.277 952.933 534.344 951.8C535.41 950.6 535.944 949.333 535.944 948V918.5H525.344C522.877 918.5 521.01 919.067 519.744 920.2C518.477 921.333 517.844 922.933 517.844 925V947C517.844 949.067 518.477 950.667 519.744 951.8C521.01 952.933 522.877 953.5 525.344 953.5H529.444ZM560.441 911H568.441V913.7C570.641 911.9 573.308 911 576.441 911H583.741V919H575.441C573.241 919 571.608 919.733 570.541 921.2C569.475 922.667 568.941 924.1 568.941 925.5V961H560.441V911ZM593.242 900V891H602.742V900H593.242ZM593.742 961V911H602.242V961H593.742ZM639.554 961H627.254L613.754 911H622.854L633.654 953.9L644.154 911H652.954L639.554 961ZM678.98 961C673.114 961 668.814 959.767 666.08 957.3C663.347 954.767 661.98 950.667 661.98 945V927C661.98 921.267 663.214 917.167 665.68 914.7C668.147 912.233 672.247 911 677.98 911H680.68C685.414 911 688.98 912.333 691.38 915C693.847 917.6 695.08 921.433 695.08 926.5V939.5H670.48V947C670.48 949.067 671.114 950.667 672.38 951.8C673.647 952.933 675.514 953.5 677.98 953.5H691.88V961H678.98ZM686.78 932V924.5C686.78 922.767 686.214 921.333 685.08 920.2C683.947 919.067 682.514 918.5 680.78 918.5H676.98C674.58 918.5 672.88 919.067 671.88 920.2C670.947 921.267 670.48 922.867 670.48 925V932H686.78ZM734.463 958.7C732.263 960.233 729.596 961 726.463 961H725.063C719.663 961 715.629 959.733 712.963 957.2C710.363 954.667 709.063 950.6 709.063 945V911H717.563V947C717.563 949 718.129 950.6 719.263 951.8C720.463 952.933 722.063 953.5 724.063 953.5H727.463C729.596 953.5 731.163 952.967 732.163 951.9C733.229 950.833 733.829 949.633 733.963 948.3V911H742.463V961H734.463V958.7ZM758.488 911H766.488V913.4C768.555 911.8 771.222 911 774.488 911H776.088C781.955 911 786.255 912.267 788.988 914.8C791.722 917.267 793.088 921.333 793.088 927V945C793.088 950.6 791.688 954.667 788.888 957.2C786.155 959.733 781.888 961 776.088 961H766.988V978H758.488V911ZM773.488 918.5C771.288 918.5 769.655 919.1 768.588 920.3C767.522 921.433 766.988 922.667 766.988 924V953.5H777.088C779.555 953.5 781.422 952.933 782.688 951.8C783.955 950.667 784.588 949.067 784.588 947V925C784.588 922.933 783.955 921.333 782.688 920.2C781.422 919.067 779.555 918.5 777.088 918.5H773.488Z" fill="white"/>
<defs>
<filter id="filter0_f_2740_4676" x="255.403" y="184.988" width="584.432" height="761.677" filterUnits="userSpaceOnUse" color-interpolation-filters="sRGB">
<feFlood flood-opacity="0" result="BackgroundImageFix"/>
<feBlend mode="normal" in="SourceGraphic" in2="BackgroundImageFix" result="shape"/>
<feGaussianBlur stdDeviation="29.8368" result="effect1_foregroundBlur_2740_4676"/>
</filter>
<linearGradient id="paint0_linear_2740_4676" x1="-22.676" y1="1.5011e-05" x2="1007.89" y2="1024" gradientUnits="userSpaceOnUse">
<stop stop-color="#4F5053"/>
<stop offset="1" stop-color="#222221"/>
</linearGradient>
<linearGradient id="paint1_linear_2740_4676" x1="866.462" y1="293.595" x2="878.396" y2="1025.19" gradientUnits="userSpaceOnUse">
<stop stop-color="#1D1D1E"/>
<stop offset="0.677239" stop-opacity="0"/>
<stop offset="1" stop-opacity="0"/>
</linearGradient>
<linearGradient id="paint2_linear_2740_4676" x1="662.377" y1="145.008" x2="360.429" y2="741.147" gradientUnits="userSpaceOnUse">
<stop offset="0.118011" stop-color="#FEBD0A"/>
<stop offset="1" stop-color="#B73317"/>
</linearGradient>
<linearGradient id="paint3_linear_2740_4676" x1="674.312" y1="334.769" x2="385.492" y2="776.354" gradientUnits="userSpaceOnUse">
<stop stop-color="#FF4D33"/>
<stop offset="1" stop-color="#AB1027"/>
</linearGradient>
<linearGradient id="paint4_linear_2740_4676" x1="581.818" y1="491.711" x2="421.893" y2="804.401" gradientUnits="userSpaceOnUse">
<stop stop-color="#4A4846"/>
<stop offset="1" stop-color="#212027"/>
</linearGradient>
<linearGradient id="paint5_linear_2740_4676" x1="565.11" y1="654.024" x2="465.455" y2="825.288" gradientUnits="userSpaceOnUse">
<stop stop-color="#323132"/>
<stop offset="1" stop-color="#222028"/>
</linearGradient>
</defs>
</svg>
