<svg width="48" height="65" viewBox="0 0 48 65" fill="none" xmlns="http://www.w3.org/2000/svg">
<path d="M24.5341 56.209C22.518 57.674 19.7318 61.4833 24.7162 65.0008C26.5658 63.6159 29.1187 59.9187 24.5341 56.209Z" fill="#242328"/>
<path d="M0.521145 35.3911C0.11972 38.2111 2.10205 41.5665 3.14339 42.8916C2.62804 40.8293 2.49727 37.3788 11.2348 30.7975C18.2249 25.5325 23.142 18.4661 24.7267 15.5911C26.091 18.4112 30.5889 25.4008 37.6665 30.7975C44.7441 36.1943 45.3627 41.2587 44.7873 43.1164C50.88 36.079 45.4234 28.4727 41.9336 25.5492C31.3067 16.1498 26.2082 4.59998 24.9873 0C20.1536 13.4938 11.3346 21.8236 6.96196 25.5492C2.5893 29.2748 1.02293 31.866 0.521145 35.3911Z" fill="url(#paint0_linear_2740_4610)"/>
<path d="M9.42138 35.2874C19.7414 27.2729 23.9398 20.9999 24.7489 18.8652C27.2063 24.7068 33.8343 29.9787 40.4136 36.2377C46.993 42.4967 43.1692 49.264 40.6151 51.3638C41.5141 46.0034 38.5286 42.5768 36.9234 41.5335C31.0493 37.6177 26.3596 31.6907 24.7489 29.2166C20.5991 34.1114 17.0237 37.9232 11.7269 41.5335C7.48943 44.4218 7.17983 49.397 7.55472 51.5236C0.461587 44.494 5.84369 37.7705 9.42138 35.2874Z" fill="url(#paint1_linear_2740_4610)"/>
<path d="M13.1539 43.4216C18.6963 39.6956 23.1281 34.3966 24.6512 32.2129C26.9257 35.9644 32.9222 41.2485 35.6362 43.4216C43.0284 51.8693 38.2139 56.0807 34.8825 57.1305C35.7575 52.8721 32.6542 49.3819 30.9932 48.1691C27.9268 45.7707 25.4875 42.8843 24.6512 41.7409C23.3826 43.793 19.6635 46.6192 17.9343 48.1691C14.0141 51.1885 13.3415 55.2509 13.6682 57.2496C8.96913 57.0772 6.2258 48.0791 13.1539 43.4216Z" fill="url(#paint2_linear_2740_4610)"/>
<path d="M19.1008 49.9158C22.6482 47.1831 24.6407 44.5996 24.6407 44.5996C24.6407 44.5996 26.4551 47.3236 29.5617 49.9158C36.4297 56.7363 32.0244 60.8319 28.8487 61.666C29.182 58.7715 27.6017 56.7486 26.7699 56.0989L24.5458 53.9601L22.1222 56.0989C19.744 58.0295 19.4547 60.4819 19.744 61.666C12.4471 58.801 16.2748 52.6388 19.1008 49.9158Z" fill="url(#paint3_linear_2740_4610)"/>
<defs>
<linearGradient id="paint0_linear_2740_4610" x1="39.0045" y1="-4.52075" x2="8.44907" y2="55.805" gradientUnits="userSpaceOnUse">
<stop offset="0.118011" stop-color="#FEBD0A"/>
<stop offset="1" stop-color="#B73317"/>
</linearGradient>
<linearGradient id="paint1_linear_2740_4610" x1="40.212" y1="14.6821" x2="10.9851" y2="59.3678" gradientUnits="userSpaceOnUse">
<stop stop-color="#FF4D33"/>
<stop offset="1" stop-color="#AB1027"/>
</linearGradient>
<linearGradient id="paint2_linear_2740_4610" x1="30.8524" y1="30.5637" x2="14.6689" y2="62.2061" gradientUnits="userSpaceOnUse">
<stop stop-color="#4A4846"/>
<stop offset="1" stop-color="#212027"/>
</linearGradient>
<linearGradient id="paint3_linear_2740_4610" x1="29.1617" y1="46.9888" x2="19.0772" y2="64.3196" gradientUnits="userSpaceOnUse">
<stop stop-color="#323132"/>
<stop offset="1" stop-color="#222028"/>
</linearGradient>
</defs>
</svg>
