<svg width="375" height="121" viewBox="0 0 375 121" fill="none" xmlns="http://www.w3.org/2000/svg">
<g filter="url(#filter0_d_2740_2922)">
<path d="M-128.778 52.6277H-132V154L377.5 154.006V37.2574H134.9C134.9 37.2574 108.134 33.8157 100.3 52.1047C96.547 60.8654 94.48 66.3858 93.2279 70.1072C92.109 73.4297 89.374 89.79 70.8949 91.7928C52.416 93.7956 42.1779 91.7928 42.1779 91.7928C42.1779 91.7928 25.8286 90.2652 20.3387 72.6796C14.8488 55.0939 8.79918 36.4996 -11.455 37.0946C-31.709 37.6894 -128.778 52.6277 -128.778 52.6277Z" fill="white"/>
</g>
<path d="M145.083 93.1673C144.304 93.1673 143.637 92.8899 143.082 92.335C142.527 91.7802 142.25 91.1132 142.25 90.334V70.5007C142.25 69.7215 142.527 69.0545 143.082 68.4996C143.637 67.9447 144.304 67.6673 145.083 67.6673H146.5V64.834H149.333V67.6673H160.667V64.834H163.5V67.6673H164.917C165.696 67.6673 166.363 67.9447 166.918 68.4996C167.473 69.0545 167.75 69.7215 167.75 70.5007V90.334C167.75 91.1132 167.473 91.7802 166.918 92.335C166.363 92.8899 165.696 93.1673 164.917 93.1673H145.083ZM145.083 90.334H164.917V76.1673H145.083V90.334ZM145.083 73.334H164.917V70.5007H145.083V73.334ZM155 81.834C154.599 81.834 154.262 81.6982 153.991 81.4267C153.719 81.1552 153.583 80.8187 153.583 80.4173C153.583 80.0159 153.719 79.6795 153.991 79.4079C154.262 79.1364 154.599 79.0007 155 79.0007C155.401 79.0007 155.738 79.1364 156.009 79.4079C156.281 79.6795 156.417 80.0159 156.417 80.4173C156.417 80.8187 156.281 81.1552 156.009 81.4267C155.738 81.6982 155.401 81.834 155 81.834ZM149.333 81.834C148.932 81.834 148.595 81.6982 148.324 81.4267C148.052 81.1552 147.917 80.8187 147.917 80.4173C147.917 80.0159 148.052 79.6795 148.324 79.4079C148.595 79.1364 148.932 79.0007 149.333 79.0007C149.735 79.0007 150.071 79.1364 150.343 79.4079C150.614 79.6795 150.75 80.0159 150.75 80.4173C150.75 80.8187 150.614 81.1552 150.343 81.4267C150.071 81.6982 149.735 81.834 149.333 81.834ZM160.667 81.834C160.265 81.834 159.929 81.6982 159.657 81.4267C159.386 81.1552 159.25 80.8187 159.25 80.4173C159.25 80.0159 159.386 79.6795 159.657 79.4079C159.929 79.1364 160.265 79.0007 160.667 79.0007C161.068 79.0007 161.405 79.1364 161.676 79.4079C161.948 79.6795 162.083 80.0159 162.083 80.4173C162.083 80.8187 161.948 81.1552 161.676 81.4267C161.405 81.6982 161.068 81.834 160.667 81.834ZM155 87.5007C154.599 87.5007 154.262 87.3649 153.991 87.0934C153.719 86.8218 153.583 86.4854 153.583 86.084C153.583 85.6826 153.719 85.3461 153.991 85.0746C154.262 84.8031 154.599 84.6673 155 84.6673C155.401 84.6673 155.738 84.8031 156.009 85.0746C156.281 85.3461 156.417 85.6826 156.417 86.084C156.417 86.4854 156.281 86.8218 156.009 87.0934C155.738 87.3649 155.401 87.5007 155 87.5007ZM149.333 87.5007C148.932 87.5007 148.595 87.3649 148.324 87.0934C148.052 86.8218 147.917 86.4854 147.917 86.084C147.917 85.6826 148.052 85.3461 148.324 85.0746C148.595 84.8031 148.932 84.6673 149.333 84.6673C149.735 84.6673 150.071 84.8031 150.343 85.0746C150.614 85.3461 150.75 85.6826 150.75 86.084C150.75 86.4854 150.614 86.8218 150.343 87.0934C150.071 87.3649 149.735 87.5007 149.333 87.5007ZM160.667 87.5007C160.265 87.5007 159.929 87.3649 159.657 87.0934C159.386 86.8218 159.25 86.4854 159.25 86.084C159.25 85.6826 159.386 85.3461 159.657 85.0746C159.929 84.8031 160.265 84.6673 160.667 84.6673C161.068 84.6673 161.405 84.8031 161.676 85.0746C161.948 85.3461 162.083 85.6826 162.083 86.084C162.083 86.4854 161.948 86.8218 161.676 87.0934C161.405 87.3649 161.068 87.5007 160.667 87.5007Z" fill="black"/>
<path d="M239.833 87.5007C239.054 87.5007 238.387 87.2232 237.832 86.6684C237.278 86.1135 237 85.4465 237 84.6673V67.6673C237 66.8882 237.278 66.2211 237.832 65.6663C238.387 65.1114 239.054 64.834 239.833 64.834H256.833C257.613 64.834 258.28 65.1114 258.835 65.6663C259.389 66.2211 259.667 66.8882 259.667 67.6673V84.6673C259.667 85.4465 259.389 86.1135 258.835 86.6684C258.28 87.2232 257.613 87.5007 256.833 87.5007H239.833ZM239.833 84.6673H256.833V67.6673H239.833V84.6673ZM234.167 93.1673C233.388 93.1673 232.721 92.8899 232.166 92.335C231.611 91.7802 231.333 91.1132 231.333 90.334V70.5007H234.167V90.334H254V93.1673H234.167Z" fill="black"/>
<path d="M332.104 93.1673L331.538 88.634C331.231 88.5159 330.942 88.3743 330.67 88.209C330.398 88.0437 330.133 87.8666 329.873 87.6777L325.659 89.4486L321.763 82.7194L325.411 79.9569C325.387 79.7916 325.375 79.6322 325.375 79.4788V78.5225C325.375 78.3691 325.387 78.2097 325.411 78.0444L321.763 75.2819L325.659 68.5527L329.873 70.3236C330.133 70.1347 330.404 69.9576 330.688 69.7923C330.971 69.627 331.254 69.4854 331.538 69.3673L332.104 64.834H339.896L340.463 69.3673C340.77 69.4854 341.059 69.627 341.33 69.7923C341.602 69.9576 341.868 70.1347 342.127 70.3236L346.342 68.5527L350.238 75.2819L346.59 78.0444C346.613 78.2097 346.625 78.3691 346.625 78.5225V79.4788C346.625 79.6322 346.602 79.7916 346.554 79.9569L350.202 82.7194L346.306 89.4486L342.127 87.6777C341.868 87.8666 341.596 88.0437 341.313 88.209C341.029 88.3743 340.746 88.5159 340.463 88.634L339.896 93.1673H332.104ZM334.584 90.334H337.381L337.877 86.5798C338.609 86.3909 339.288 86.1135 339.914 85.7475C340.539 85.3816 341.112 84.9388 341.631 84.4194L345.138 85.8715L346.519 83.4632L343.473 81.1611C343.591 80.8305 343.674 80.4822 343.721 80.1163C343.768 79.7503 343.792 79.3784 343.792 79.0007C343.792 78.6229 343.768 78.251 343.721 77.885C343.674 77.5191 343.591 77.1708 343.473 76.8402L346.519 74.5382L345.138 72.1298L341.631 73.6173C341.112 73.0743 340.539 72.6197 339.914 72.2538C339.288 71.8878 338.609 71.6104 337.877 71.4215L337.417 67.6673H334.619L334.123 71.4215C333.391 71.6104 332.712 71.8878 332.087 72.2538C331.461 72.6197 330.888 73.0625 330.369 73.5819L326.863 72.1298L325.481 74.5382L328.527 76.8048C328.409 77.159 328.327 77.5132 328.279 77.8673C328.232 78.2215 328.209 78.5993 328.209 79.0007C328.209 79.3784 328.232 79.7444 328.279 80.0986C328.327 80.4527 328.409 80.8069 328.527 81.1611L325.481 83.4632L326.863 85.8715L330.369 84.384C330.888 84.927 331.461 85.3816 332.087 85.7475C332.712 86.1135 333.391 86.3909 334.123 86.5798L334.584 90.334ZM336.071 83.959C337.44 83.959 338.609 83.475 339.577 82.5069C340.545 81.5388 341.029 80.3701 341.029 79.0007C341.029 77.6312 340.545 76.4625 339.577 75.4944C338.609 74.5263 337.44 74.0423 336.071 74.0423C334.678 74.0423 333.503 74.5263 332.547 75.4944C331.591 76.4625 331.113 77.6312 331.113 79.0007C331.113 80.3701 331.591 81.5388 332.547 82.5069C333.503 83.475 334.678 83.959 336.071 83.959Z" fill="black"/>
<g filter="url(#filter1_d_2740_2922)">
<ellipse cx="55" cy="56" rx="25" ry="26" fill="#F5AD0B"/>
</g>
<path d="M46 66.8889H50.5V57.5556H59.5V66.8889H64V52.8889L55 45.8889L46 52.8889V66.8889ZM43 70V51.3333L55 42L67 51.3333V70H56.5V60.6667H53.5V70H43Z" fill="black"/>
<defs>
<filter id="filter0_d_2740_2922" x="-162" y="0" width="569.5" height="177.006" filterUnits="userSpaceOnUse" color-interpolation-filters="sRGB">
<feFlood flood-opacity="0" result="BackgroundImageFix"/>
<feColorMatrix in="SourceAlpha" type="matrix" values="0 0 0 0 0 0 0 0 0 0 0 0 0 0 0 0 0 0 127 0" result="hardAlpha"/>
<feOffset dy="-7"/>
<feGaussianBlur stdDeviation="15"/>
<feColorMatrix type="matrix" values="0 0 0 0 0 0 0 0 0 0 0 0 0 0 0 0 0 0 0.0784314 0"/>
<feBlend mode="normal" in2="BackgroundImageFix" result="effect1_dropShadow_2740_2922"/>
<feBlend mode="normal" in="SourceGraphic" in2="effect1_dropShadow_2740_2922" result="shape"/>
</filter>
<filter id="filter1_d_2740_2922" x="0" y="3" width="110" height="112" filterUnits="userSpaceOnUse" color-interpolation-filters="sRGB">
<feFlood flood-opacity="0" result="BackgroundImageFix"/>
<feColorMatrix in="SourceAlpha" type="matrix" values="0 0 0 0 0 0 0 0 0 0 0 0 0 0 0 0 0 0 127 0" result="hardAlpha"/>
<feOffset dy="3"/>
<feGaussianBlur stdDeviation="15"/>
<feColorMatrix type="matrix" values="0 0 0 0 0 0 0 0 0 0 0 0 0 0 0 0 0 0 0.0784314 0"/>
<feBlend mode="normal" in2="BackgroundImageFix" result="effect1_dropShadow_2740_2922"/>
<feBlend mode="normal" in="SourceGraphic" in2="effect1_dropShadow_2740_2922" result="shape"/>
</filter>
</defs>
</svg>
