<svg width="54" height="28" viewBox="0 0 54 28" fill="none" xmlns="http://www.w3.org/2000/svg">
<rect x="0.5" y="0.5" width="53" height="27" rx="5.5" fill="white"/>
<rect x="0.5" y="0.5" width="53" height="27" rx="5.5" stroke="black"/>
<path d="M18 24C17.45 24 16.9792 23.8042 16.5875 23.4125C16.1958 23.0208 16 22.55 16 22V10C16 9.45 16.1958 8.97917 16.5875 8.5875C16.9792 8.19583 17.45 8 18 8H21.15L23 6H29V8H23.875L22.05 10H18V22H34V13H36V22C36 22.55 35.8042 23.0208 35.4125 23.4125C35.0208 23.8042 34.55 24 34 24H18ZM34 10V8H32V6H34V4H36V6H38V8H36V10H34ZM26 20.5C27.25 20.5 28.3125 20.0625 29.1875 19.1875C30.0625 18.3125 30.5 17.25 30.5 16C30.5 14.75 30.0625 13.6875 29.1875 12.8125C28.3125 11.9375 27.25 11.5 26 11.5C24.75 11.5 23.6875 11.9375 22.8125 12.8125C21.9375 13.6875 21.5 14.75 21.5 16C21.5 17.25 21.9375 18.3125 22.8125 19.1875C23.6875 20.0625 24.75 20.5 26 20.5ZM26 18.5C25.3 18.5 24.7083 18.2583 24.225 17.775C23.7417 17.2917 23.5 16.7 23.5 16C23.5 15.3 23.7417 14.7083 24.225 14.225C24.7083 13.7417 25.3 13.5 26 13.5C26.7 13.5 27.2917 13.7417 27.775 14.225C28.2583 14.7083 28.5 15.3 28.5 16C28.5 16.7 28.2583 17.2917 27.775 17.775C27.2917 18.2583 26.7 18.5 26 18.5Z" fill="black"/>
</svg>
