<svg width="309" height="332" viewBox="0 0 309 332" fill="none" xmlns="http://www.w3.org/2000/svg">
<g style="mix-blend-mode:multiply" opacity="0.73">
<path d="M15.4126 165.916C15.4126 143.109 22.1759 120.815 34.8471 101.851C47.5183 82.8883 65.5283 68.1086 86.5996 59.3815C107.671 50.6544 130.857 48.3718 153.225 52.8224C175.594 57.2729 196.14 68.2568 212.266 84.3849C228.392 100.513 239.373 121.061 243.82 143.43C248.268 165.799 245.982 188.985 237.252 210.055C228.522 231.125 213.74 249.133 194.775 261.801C175.81 274.47 153.514 281.23 130.707 281.227C100.128 281.223 70.8022 269.072 49.1807 247.448C27.5592 225.823 15.4126 196.496 15.4126 165.916Z" fill="#687A9B"/>
</g>
<path opacity="0.68" d="M130.707 50.6055C107.901 50.6055 85.6068 57.3683 66.6441 70.0388C47.6813 82.7094 32.9016 100.718 24.174 121.789C15.4464 142.859 13.1629 166.044 17.6122 188.412C22.0615 210.78 33.0438 231.327 49.1703 247.453C65.2968 263.58 85.8432 274.562 108.211 279.011C130.579 283.461 153.765 281.177 174.835 272.45C195.905 263.722 213.914 248.942 226.585 229.979C239.255 211.017 246.018 188.723 246.018 165.916C246.018 135.334 233.869 106.004 212.244 84.3792C190.619 62.7542 161.29 50.6055 130.707 50.6055ZM130.707 275.068C109.116 275.081 88.0067 268.69 70.0484 256.704C52.09 244.718 38.0898 227.675 29.8186 207.731C21.5473 187.787 19.3766 165.839 23.5811 144.661C27.7855 123.483 38.1762 104.028 53.4388 88.7568C68.7014 73.4852 88.1504 63.0832 109.326 58.8663C130.501 54.6495 152.451 56.8073 172.399 65.0669C192.348 73.3265 209.399 87.3167 221.396 105.268C233.392 123.219 239.795 144.325 239.795 165.916C239.795 194.854 228.304 222.608 207.848 243.076C187.392 263.544 159.645 275.051 130.707 275.068Z" fill="white"/>
<g style="mix-blend-mode:soft-light" opacity="0.8">
<path d="M113.986 293.848L114.273 291.487C118.979 292.085 123.714 292.426 128.458 292.508V294.901C123.629 294.81 118.809 294.459 114.018 293.848H113.986ZM139.515 292.253C144.245 291.935 148.954 291.355 153.62 290.513L154.05 292.875C149.299 293.725 144.506 294.317 139.69 294.646L139.531 292.253H139.515ZM88.9038 288.12L89.6857 285.854C94.1793 287.372 98.7552 288.635 103.391 289.636L102.897 291.981C98.1711 290.949 93.5051 289.661 88.9198 288.12H88.9038ZM164.405 288.088C168.984 286.838 173.491 285.336 177.904 283.589L178.781 285.822C174.293 287.605 169.707 289.129 165.044 290.386L164.405 288.088ZM65.4811 277.526L66.6777 275.451C70.8121 277.812 75.0734 279.942 79.4422 281.834L78.4689 284.019C74.0451 282.081 69.7307 279.903 65.5449 277.494L65.4811 277.526ZM188.02 279.121C192.257 276.999 196.375 274.645 200.353 272.069L201.646 274.079C197.591 276.704 193.394 279.101 189.073 281.259L188.02 279.121ZM44.5793 262.495L46.1748 260.708C49.7385 263.831 53.4668 266.76 57.3437 269.484L55.9716 271.431C52.0088 268.669 48.2053 265.686 44.5793 262.495ZM209.368 265.607C213.11 262.694 216.689 259.578 220.09 256.273L221.766 257.996C218.3 261.359 214.651 264.528 210.836 267.49L209.368 265.607ZM26.9963 243.732L28.895 242.28C31.7813 246.04 34.8762 249.636 38.1652 253.05L36.4419 254.645C33.0944 251.162 29.9411 247.498 26.9963 243.668V243.732ZM227.701 248.231C230.802 244.67 233.705 240.941 236.397 237.062L238.375 238.418C235.631 242.397 232.67 246.222 229.504 249.875L227.701 248.279V248.231ZM13.4181 221.904L15.5721 220.835C17.6662 225.088 19.9939 229.222 22.5447 233.217L20.5343 234.509C17.9272 230.445 15.5514 226.237 13.4181 221.904ZM242.285 227.633C244.641 223.496 246.772 219.235 248.667 214.868L250.853 215.809C248.966 220.248 246.835 224.578 244.47 228.781L242.38 227.601L242.285 227.633ZM4.45109 197.796L6.76466 197.173C7.97492 201.758 9.44517 206.27 11.1684 210.688L8.93459 211.565C7.18703 207.062 5.69024 202.465 4.45109 197.796ZM252.56 204.561C254.047 200.054 255.283 195.467 256.262 190.823L258.607 191.318C257.612 196.05 256.349 200.721 254.826 205.311L252.56 204.561ZM0.302634 172.442L2.68004 172.299C2.95936 177.025 3.49198 181.734 4.2756 186.403L1.93013 186.818C1.09847 182.067 0.533803 177.273 0.238822 172.458L0.302634 172.442ZM258.065 179.925C258.624 175.212 258.917 170.471 258.942 165.725H261.335C261.283 170.558 260.963 175.383 260.378 180.181L258.001 179.893L258.065 179.925ZM0.0473633 164.225C0.049785 159.396 0.310775 154.571 0.829194 149.769L3.20656 150.041C2.69346 154.751 2.43777 159.487 2.44067 164.225H0.0473633ZM256.82 140.579L259.181 140.132C260.065 144.881 260.688 149.675 261.048 154.492L258.655 154.668C258.306 149.936 257.693 145.227 256.82 140.563V140.579ZM4.88187 139.111L2.5364 138.601C3.4749 133.862 4.6788 129.179 6.14237 124.576L8.424 125.294C6.98171 129.818 5.79907 134.42 4.88187 139.079V139.111ZM249.768 116.343L251.986 115.449C253.796 119.932 255.351 124.513 256.645 129.171L254.331 129.809C253.06 125.239 251.536 120.744 249.768 116.343ZM10.0355 114.029C11.894 109.566 13.9981 105.208 16.338 100.977L18.4282 102.142C16.1361 106.282 14.0695 110.543 12.2374 114.907L10.0355 114.029ZM238.072 93.925L240.083 92.6166C242.724 96.6591 245.148 100.84 247.342 105.142L245.204 106.227C243.058 101.996 240.677 97.8893 238.072 93.925ZM22.2096 91.3721C24.904 87.3638 27.8177 83.5073 30.9373 79.8203L32.7722 81.4158C29.7044 85.031 26.8387 88.813 24.1881 92.7443L22.2096 91.42V91.3721ZM222.244 74.3316L223.952 72.6403C227.335 76.0934 230.531 79.7258 233.525 83.522L231.642 85.0058C228.707 81.2788 225.57 77.7154 222.244 74.3316ZM40.3511 73.1828L38.58 71.5872C42.008 68.2004 45.6194 65.0045 49.3979 62.0139L50.8977 63.8807C47.2132 66.7844 43.6923 69.8898 40.3511 73.1828ZM202.938 58.0728L204.294 56.0944C208.287 58.8113 212.122 61.7518 215.782 64.9018L214.187 66.7048C210.583 63.6217 206.812 60.74 202.89 58.0728H202.938ZM58.5883 55.2168C62.6153 52.5485 66.786 50.1036 71.0815 47.8932L72.1665 50.0153C67.9285 52.1956 63.8112 54.6031 59.8328 57.2272L58.5085 55.2328L58.5883 55.2168ZM180.76 46.0583L181.685 43.8564C186.135 45.7419 190.476 47.8726 194.689 50.2387L193.524 52.2969C189.389 49.982 185.127 47.8993 180.76 46.0583ZM81.293 43.2661C85.757 41.4137 90.3223 39.8156 94.9669 38.4794L95.6211 40.777C91.0614 42.0777 86.5764 43.6278 82.1865 45.4201L81.293 43.2182V43.2661ZM156.635 38.5592L157.114 36.2137C161.85 37.1824 166.527 38.4183 171.123 39.9154L170.389 42.1811C165.875 40.7199 161.283 39.5107 156.635 38.5592ZM105.928 35.9265C110.675 35.0091 115.469 34.3592 120.288 33.98L120.48 36.3573C115.752 36.7327 111.048 37.3719 106.391 38.272L105.928 35.9265ZM131.457 35.9265V33.5332C136.288 33.5588 141.114 33.8518 145.913 34.4108L145.658 36.8041C140.943 36.2584 136.203 35.9708 131.457 35.9425V35.9265Z" fill="white"/>
</g>
<g opacity="0.61">
<path d="M285.843 312.61L289.226 309.211L308.372 328.358L304.974 331.757L285.827 312.61H285.843ZM258.719 285.486L262.133 282.199L281.28 301.345L277.897 304.728L258.751 285.581L258.719 285.486ZM231.594 258.361L235.009 255.074L254.155 274.221L250.773 277.603L231.626 258.457L231.594 258.361Z" fill="white"/>
<path d="M285.348 291.948L288.731 288.566L307.878 307.712L304.495 311.111L285.348 291.964V291.948ZM258.224 264.824L261.654 261.457L280.801 280.604L277.418 284.002L258.272 264.856L258.224 264.824ZM233.413 240.045L236.796 236.662L253.725 253.591L250.342 256.974L233.413 240.045Z" fill="white"/>
</g>
<g opacity="0.61">
<path d="M135.239 26.9911V0.457031H140.026V26.9911H135.239Z" fill="white"/>
<path d="M121.39 26.7358V0.457031H126.192V26.7358H121.39Z" fill="white"/>
</g>
<path d="M155.071 203.443L210.708 206.299L197.8 223.037L159.81 217.596L155.071 203.443Z" fill="#302F2F"/>
<path d="M154.928 134.723C159.124 136.893 174.856 146.61 182.579 149.529C191.402 152.896 180.808 187.137 178.574 195.561C176.34 203.986 175.734 212.522 169.32 218.074C162.906 223.627 126.798 235.131 125.681 213.974C124.564 192.817 132.797 142.27 140.6 139.637C148.402 137.004 154.928 134.723 154.928 134.723Z" fill="#B5B1B1"/>
<path d="M121.725 136.398C114.656 137.707 112.071 138.377 105.625 145.972C99.1794 153.567 87.4042 224.154 98.4933 239.152C109.582 254.15 133.468 240.828 133.468 240.828L140.185 140.659L121.725 136.398Z" fill="#9E9898"/>
<path d="M114.034 116.263C117.959 131.995 127.389 141.01 142.898 138.936C158.406 136.862 164.98 133.814 167.373 115.481C169.416 99.7171 157.465 86.8889 138.574 87.6069C121.916 88.1813 110.556 102.142 114.034 116.263Z" fill="white"/>
<path d="M132.654 123.825C129.894 128.612 114.64 121.145 114.64 121.145C114.64 121.145 117.831 141.887 120.256 144.472C122.682 147.056 125.793 148.237 130.867 149.147C135.941 150.056 136.324 149.147 136.324 149.147L139.02 125.405L132.654 123.825Z" fill="#B5B1B1"/>
<path d="M141.27 125.341C144.253 130.095 166.4 119.453 166.4 119.453C166.4 119.453 160.927 141.376 158.661 144.009C156.396 146.641 147.636 148.476 142.61 149.481C139.773 150.064 136.839 149.977 134.042 149.226L133.93 122.533L141.27 125.341Z" fill="white"/>
<path d="M112.965 110.199L115.055 125.612C115.055 125.612 118.9 132.681 134.202 132.888C148.737 133.08 155.167 130.032 156.444 129.107C159.39 126.996 161.385 123.808 161.996 120.235C162.842 115.72 163.879 108.588 163.879 108.588C163.879 108.588 154.481 113.215 131.585 112.561C118.916 112.194 114.576 107.423 112.965 110.199Z" fill="#6D6464"/>
<path d="M159.826 94.2598C149.822 102.238 127.708 100.243 119.586 95.8553C117.234 98.2922 115.447 101.218 114.353 104.423C133.707 113.997 157.529 107.2 165.905 102.94C164.653 99.5748 162.56 96.5867 159.826 94.2598Z" fill="#CC0000"/>
<path d="M113.747 111.618L115.486 125.053C115.486 125.053 120.448 130.653 133.787 131.355C147.062 131.579 152.933 129.249 154.417 128.786C158.853 126.872 160.624 122.149 161.087 118.32C161.43 115.634 161.926 112.971 162.571 110.342C162.571 110.342 153.157 114.602 131.728 113.884C119.794 113.581 114.082 109.672 113.747 111.618Z" fill="black"/>
<path style="mix-blend-mode:screen" d="M153.843 113.613L150.253 129.888C148.38 130.391 146.461 130.706 144.525 130.829C146.28 125.415 147.608 119.873 148.498 114.252L153.843 113.613Z" fill="url(#paint0_linear_2753_2743)"/>
<path d="M157.177 113.055L155.917 126.601L152.056 129.074L155.678 113.342L157.177 113.055Z" fill="url(#paint1_linear_2753_2743)"/>
<path d="M79.187 172.648C79.5061 152.353 97.2647 136.621 118.438 136.876C139.595 137.195 156.922 153.39 156.731 173.686C156.412 193.981 138.669 209.697 117.496 209.442C96.3233 209.123 78.9956 192.944 79.203 172.648H79.187ZM87.6435 172.76C87.468 187.87 100.599 200.746 117.576 201.001C134.537 201.209 148.019 188.684 148.243 173.574C148.418 158.448 135.287 145.572 118.326 145.333C101.349 145.125 87.8828 157.634 87.6435 172.76Z" fill="black"/>
<path d="M118.437 136.878C109.879 136.749 101.501 139.335 94.5039 144.265L97.1047 152.961C102.995 147.887 110.553 145.17 118.326 145.334C123.94 145.311 129.451 146.84 134.252 149.751C139.052 152.662 142.955 156.843 145.53 161.832L152.231 156.296C148.773 150.4 143.837 145.507 137.911 142.102C131.985 138.697 125.272 136.896 118.437 136.878Z" fill="#302F2F"/>
<path d="M230.222 195.77L222.803 195.674C215.846 196.408 211.634 206.364 211.41 218.315C211.187 230.265 215.639 240.11 222.579 241.035H229.217C236.189 240.302 239.173 230.553 239.333 218.602C239.492 206.651 237.115 196.695 230.222 195.77Z" fill="black"/>
<path d="M230.35 195.77H229.823H223.09H222.579C217.043 196.344 213.5 202.902 211.969 211.438L238.854 211.805C238.407 203.125 235.854 196.503 230.35 195.77Z" fill="#302F2F"/>
<path d="M238.519 218.602C238.407 227.394 236.924 234.558 235.2 234.558C233.477 234.558 232.185 227.378 232.312 218.602C232.44 209.826 233.908 202.646 235.631 202.646C237.354 202.646 238.647 209.795 238.519 218.602Z" fill="black"/>
<path d="M238.28 218.585C238.184 225.957 237.147 231.908 235.95 231.892C234.754 231.876 233.892 225.893 233.988 218.537C234.083 211.182 235.137 205.215 236.317 205.231C237.498 205.246 238.391 211.23 238.28 218.585Z" fill="#B5B1B1"/>
<path d="M81.5482 189.482L74.1288 189.387C67.1722 190.121 62.9599 200.077 62.7366 212.028C62.5132 223.978 66.9648 233.823 73.9054 234.748H80.543C87.5155 234.014 90.4992 224.266 90.6588 212.315C90.8183 200.364 88.4888 190.408 81.5482 189.482Z" fill="black"/>
<path d="M89.941 209.555C89.8133 218.363 88.3454 225.511 86.6063 225.511C84.8671 225.511 83.6066 218.331 83.7183 209.555C83.83 200.78 85.3139 193.6 87.0371 193.6C88.7603 193.6 90.0527 200.827 89.941 209.555Z" fill="black"/>
<path d="M89.7017 209.554C89.59 216.91 88.5529 222.861 87.3722 222.845C86.1915 222.829 85.298 216.862 85.3937 209.49C85.4895 202.119 86.5425 196.183 87.7232 196.199C88.904 196.215 89.8134 202.199 89.7017 209.554Z" fill="#B5B1B1"/>
<path d="M198.12 251.884L224.446 233.918C224.446 233.918 225.835 214.931 225.914 209.985C225.994 205.039 211.554 203.459 207.98 206.57C203.608 217.085 190.126 216.527 186.6 217.899C183.074 219.271 198.12 251.884 198.12 251.884Z" fill="#CC0000"/>
<path d="M42.0267 254.646L77.4641 238.467C77.4641 238.467 81.2455 214.884 81.8837 209.747C82.522 204.609 62.3382 202.152 57.0409 205.423C50.3236 216.432 31.7833 220.596 26.7254 221.905C21.6675 223.213 42.0267 254.646 42.0267 254.646Z" fill="#7C0000"/>
<path d="M174.202 195.944C164.326 195.816 131.984 217.229 121.964 228.366C126.001 234.062 127.548 241.832 138.254 241.274C148.961 240.715 191.498 237.045 190.206 210.958C189.679 200.396 174.202 195.944 174.202 195.944Z" fill="black"/>
<path d="M119.555 218.474C120.257 204.529 133.388 208.549 135.095 216.878C136.803 225.207 142.929 229.914 137.744 236.663C132.558 243.412 120.895 243.923 117.879 238.163C114.864 232.403 119.555 218.474 119.555 218.474Z" fill="black"/>
<path d="M104.476 192.194C96.02 192.082 71.8313 209.378 55.4609 220.435C58.9073 226.115 63.3111 239.917 72.4855 239.327C81.66 238.736 113.683 214.627 113.842 203.235C113.986 192.673 104.476 192.194 104.476 192.194Z" fill="black"/>
<path d="M49.9244 216.639C50.6265 202.694 64.4919 205.183 66.1832 213.527C67.8744 221.872 70.4752 227.887 65.3056 234.652C60.136 241.418 54.1367 242.199 51.153 236.455C48.1693 230.711 49.9244 216.639 49.9244 216.639Z" fill="black"/>
<path d="M23.9171 208.804L13.6257 208.66C5.96708 209.474 1.26021 220.435 1.0847 233.583C0.90919 246.73 5.74371 257.516 13.3864 258.601L22.8162 258.729C30.4748 257.915 34.5594 247.193 34.735 234.045C34.9105 220.898 31.5438 209.873 23.9171 208.804Z" fill="black"/>
<path d="M32.1819 233.983C32.0543 243.668 30.4109 251.534 28.5281 251.534C26.6453 251.534 25.2093 243.556 25.337 233.983C25.4646 224.409 27.1081 216.432 28.9908 216.432C30.8736 216.432 32.3734 224.298 32.1819 233.983Z" fill="black"/>
<path d="M31.9267 235.658C31.815 243.764 30.6662 250.321 29.3579 250.29C28.0495 250.258 27.0762 243.7 27.1879 235.594C27.2996 227.489 28.4484 220.931 29.7567 220.947C31.0651 220.963 32.0384 227.553 31.9267 235.658Z" fill="#9E9898"/>
<path d="M196.923 213.287L188.754 213.176C181.095 213.99 176.388 224.951 176.213 238.114C176.037 251.278 180.872 262.048 188.514 263.117V263.196L195.822 263.292C203.497 262.478 206.768 251.74 206.991 238.593C207.214 225.446 204.566 214.309 196.923 213.287Z" fill="black"/>
<path d="M197.114 213.287H196.54L189.121 213.176H188.562C182.467 213.83 178.558 221.026 176.883 230.44L206.48 230.839C206.002 221.393 203.178 214.101 197.114 213.287Z" fill="#302F2F"/>
<path d="M206.114 238.418C205.986 248.119 204.359 255.969 202.46 255.969C200.561 255.969 199.141 248.071 199.269 238.418C199.396 228.765 201.04 220.867 202.923 220.867C204.805 220.867 206.289 228.733 206.114 238.418Z" fill="black"/>
<path d="M205.858 238.418C205.746 246.524 204.597 253.081 203.289 253.065C201.981 253.049 201.007 246.46 201.119 238.354C201.231 230.249 202.38 223.691 203.688 223.707C204.996 223.723 205.954 230.313 205.858 238.418Z" fill="#B5B1B1"/>
<path d="M141.781 159.98C138.015 154.539 129.878 149.529 116.683 149.369C105.785 149.21 96.4828 152.178 92.829 156.438C91.2362 157.661 89.9175 159.204 88.9584 160.969C87.9992 162.733 87.4208 164.679 87.2605 166.681L77.049 238.896C76.6341 243.475 78.2616 233.918 82.9844 235.912L94.4565 240.3C100.009 242.646 109.614 242.247 112.183 238.082H110.747L111.321 235.673C113.827 223.866 116.284 204.879 131.362 187.168C134.904 183.02 137.744 179.845 139.898 177.371L142.658 172.298C143.377 170.296 143.67 168.167 143.519 166.046C143.368 163.925 142.776 161.859 141.781 159.98Z" fill="#CC0000"/>
<path d="M92.845 155.912C89.8909 158.604 87.9293 162.213 87.2765 166.156L77.049 238.37C76.6182 242.95 91.8876 238.801 91.8876 238.801C97.0413 239.455 105.753 236.695 105.753 236.695C108.274 224.904 111.832 204.162 126.495 186.116C135.191 175.442 136.563 170.799 136.563 170.799C138.877 164.512 138.27 161.13 136.356 157.587C134.361 154.7 132.303 151.492 124.628 149.61C122.187 149.179 103.168 146.881 92.845 155.912Z" fill="#7C0000"/>
<path d="M90.5789 182.702C89.1126 179.729 88.8 176.319 89.7014 173.129C90.9938 167.241 93.4988 158.944 96.5942 157.045C97.9663 155.258 128.074 154.748 129.718 157.045C132.542 159.152 125.553 177.405 125.553 177.405C123.836 179.912 121.463 181.899 118.693 183.149C118.693 183.149 94.2168 184.09 90.5789 182.702Z" fill="#EDA400"/>
<path d="M124.134 171.707C122.538 175.568 122.347 177.658 116.746 177.77L95.5255 177.658C90.2283 177.77 90.0847 175.504 91.1697 172.872L95.8606 161.368C96.5626 159.645 98.7007 158.177 102.674 158.081L121.469 157.969C125.618 157.794 126.767 159.07 126.782 160.809L124.134 171.707Z" fill="white"/>
<path d="M95.8606 161.353L91.1697 172.857C90.0847 175.506 90.2283 177.772 95.5255 177.644H105.099L112.151 158.066H102.705C98.7007 158.242 96.5626 159.63 95.8606 161.353Z" fill="#B5B1B1"/>
<path d="M97.5519 170C97.8439 170.41 98.2289 170.746 98.6754 170.978C99.1219 171.211 99.6171 171.335 100.121 171.34C100.786 171.395 101.452 171.24 102.024 170.896C102.597 170.553 103.047 170.038 103.312 169.426C103.743 168.213 103.072 167.559 101.716 167.527C100.918 167.521 100.13 167.707 99.4187 168.069L98.3018 167.256L101.094 161.895L108.322 162.038L107.668 164.033L102.881 163.921L101.828 165.947C102.343 165.78 102.882 165.699 103.424 165.708C105.737 165.708 107.38 166.921 106.615 169.442C106.055 170.825 105.075 171.998 103.812 172.794C102.549 173.59 101.068 173.969 99.5782 173.877C98.7234 173.953 97.8637 173.802 97.0852 173.441C96.3067 173.08 95.6368 172.52 95.1426 171.819L97.5519 170Z" fill="black"/>
<path d="M110.955 170.32C111.312 170.73 111.751 171.061 112.242 171.295C112.733 171.528 113.267 171.658 113.811 171.677C114.449 171.779 115.102 171.637 115.64 171.279C116.179 170.922 116.562 170.374 116.715 169.746C116.954 168.501 116.156 167.847 114.848 167.815C114.069 167.797 113.298 167.984 112.614 168.358L111.353 167.544L113.236 162.119L120.592 162.279L120.273 164.289L115.342 164.13L114.64 166.156C115.155 165.987 115.695 165.911 116.236 165.933C118.597 165.933 120.464 167.145 120.081 169.714C119.65 172.602 116.73 174.277 113.699 174.213C112.783 174.251 111.87 174.083 111.028 173.721C110.186 173.36 109.436 172.814 108.833 172.123L110.955 170.32Z" fill="black"/>
<path d="M118.533 182.126C111.529 181.711 98.2377 203.809 94.3286 235.433C84.2447 235.433 84.7553 235.018 84.7553 235.018C84.7553 235.018 85.8882 215.712 95.1105 180.77L118.533 182.126Z" fill="#EDA400"/>
<path d="M26.2306 221.169C17.1519 225.094 11.2803 231.461 13.8332 250.527C16.5137 258.314 58.8916 265.398 89.6539 265.813C120.416 266.228 187.063 262.717 187.844 255.681C188.626 248.645 183.999 228.349 181.223 226.195C178.447 224.041 179.484 216.351 149.743 229.801C130.037 238.688 54.0092 230.631 45.5847 228.397C37.1602 226.163 32.565 218.377 26.2306 221.169Z" fill="#7C0000"/>
<path d="M148.737 229.786C129.511 238.69 55.3811 230.999 47.2278 228.781C39.0746 226.563 34.3357 218.649 27.7621 220.468C25.6873 220.905 23.8209 222.03 22.4648 223.66C28.4003 227.138 31.9105 234.828 36.2026 238.195C46.3343 246.253 134.632 249.539 153.731 239.503C162.687 234.487 173.022 232.495 183.201 233.823C182.403 229.451 182.292 227.106 181.223 226.244C178.526 224.058 177.776 216.336 148.737 229.786Z" fill="#CC0000"/>
<path d="M151.625 237.844C132.399 246.747 50.3552 239.041 42.186 236.807C34.0167 234.573 30.5225 219.128 24.3477 221.872C23.2767 222.33 22.2643 222.914 21.332 223.612C27.2675 227.09 32.7243 235.53 37.0004 238.945C47.1322 247.018 134.601 252.14 153.699 242.136C163.48 236.982 173.819 232.563 184.478 233.903C183.871 231.382 183.026 228.366 181.973 227.521C179.26 225.303 180.648 224.393 151.625 237.844Z" fill="#EDC006"/>
<path d="M180.76 149.403C188.61 148.716 187.78 151.716 189.488 155.976C193.014 164.768 193.652 198.083 188.594 206.476C188.594 206.476 171.681 216.049 157.672 192.626L165.235 178.362C165.235 178.362 177.058 185.494 175.176 185.494C174.33 185.494 174.346 181.489 174.474 171.278C174.601 161.066 177.282 149.77 180.76 149.403Z" fill="white"/>
<path d="M79.6656 163.522C81.21 163.373 82.765 163.667 84.1491 164.368C84.8352 164.639 84.5639 166.394 80.7825 166.25C80.3052 166.24 79.8348 166.366 79.4274 166.615C79.02 166.864 78.6928 167.225 78.4849 167.655C78.4849 167.655 84.2927 165.852 85.266 167.798C85.7446 168.771 83.2715 169.043 81.5643 170.096C80.6211 170.624 79.8425 171.402 79.3146 172.346C79.3146 172.346 83.7981 170.399 84.7713 171.356C85.7446 172.314 79.0433 175.983 79.0433 175.983C79.0433 175.983 84.3406 174.244 83.9417 176.669C83.7981 177.515 79.155 181.775 76.9212 179.51C74.6875 177.244 71.7357 168.484 74.6555 165.899C77.5754 163.315 79.6656 163.522 79.6656 163.522Z" fill="#302F2F"/>
<defs>
<linearGradient id="paint0_linear_2753_2743" x1="158.876" y1="100.472" x2="130.186" y2="165.766" gradientUnits="userSpaceOnUse">
<stop offset="0.14" stop-color="white"/>
<stop offset="0.18" stop-color="#CCCCCC"/>
<stop offset="0.21" stop-color="#9D9D9D"/>
<stop offset="0.25" stop-color="#737373"/>
<stop offset="0.3" stop-color="#4F4F4F"/>
<stop offset="0.34" stop-color="#323232"/>
<stop offset="0.39" stop-color="#1C1C1C"/>
<stop offset="0.44" stop-color="#0C0C0C"/>
<stop offset="0.49" stop-color="#030303"/>
<stop offset="0.57"/>
<stop offset="0.61" stop-color="#040404"/>
<stop offset="0.65" stop-color="#111111"/>
<stop offset="0.69" stop-color="#252525"/>
<stop offset="0.73" stop-color="#434343"/>
<stop offset="0.78" stop-color="#686868"/>
<stop offset="0.82" stop-color="#969696"/>
<stop offset="0.86" stop-color="#CBCBCB"/>
<stop offset="0.9" stop-color="white"/>
</linearGradient>
<linearGradient id="paint1_linear_2753_2743" x1="163.411" y1="102.639" x2="138.818" y2="158.621" gradientUnits="userSpaceOnUse">
<stop offset="0.14" stop-color="white"/>
<stop offset="0.18" stop-color="#CCCCCC"/>
<stop offset="0.21" stop-color="#9D9D9D"/>
<stop offset="0.25" stop-color="#737373"/>
<stop offset="0.3" stop-color="#4F4F4F"/>
<stop offset="0.34" stop-color="#323232"/>
<stop offset="0.39" stop-color="#1C1C1C"/>
<stop offset="0.44" stop-color="#0C0C0C"/>
<stop offset="0.49" stop-color="#030303"/>
<stop offset="0.57"/>
<stop offset="0.61" stop-color="#040404"/>
<stop offset="0.65" stop-color="#111111"/>
<stop offset="0.69" stop-color="#252525"/>
<stop offset="0.73" stop-color="#434343"/>
<stop offset="0.78" stop-color="#686868"/>
<stop offset="0.82" stop-color="#969696"/>
<stop offset="0.86" stop-color="#CBCBCB"/>
<stop offset="0.9" stop-color="white"/>
</linearGradient>
</defs>
</svg>
