<svg width="33" height="33" viewBox="0 0 33 33" fill="none" xmlns="http://www.w3.org/2000/svg">
<path fill-rule="evenodd" clip-rule="evenodd" d="M23.4493 0.837891C24.4748 0.837891 25.4578 1.24732 26.1757 1.9709L31.0322 6.82745C31.7553 7.55052 32.1615 8.53121 32.1615 9.55379C32.1615 10.5764 31.7553 11.5571 31.0322 12.2801L13.3008 30.006C12.2068 31.2679 10.6561 32.0432 8.87958 32.1651H0.837891V30.5989L0.842977 23.9974C0.976401 22.3459 1.74419 20.8103 2.91542 19.7783L20.7211 1.97279C21.4431 1.2464 22.4251 0.837891 23.4493 0.837891ZM8.76896 29.0366C9.60565 28.9774 10.3845 28.588 11.0099 27.8726L22.8532 16.0293L16.9731 10.1491L5.06044 22.0589C4.4259 22.6201 4.03335 23.4053 3.97022 24.1235V29.0337L8.76896 29.0366ZM19.1883 7.93444L25.0681 13.8144L28.8173 10.0652C28.9529 9.92957 29.0291 9.7456 29.0291 9.55378C29.0291 9.36196 28.9529 9.178 28.8173 9.04236L23.9564 4.18145C23.8223 4.04627 23.6397 3.97024 23.4493 3.97024C23.2589 3.97024 23.0763 4.04627 22.9422 4.18145L19.1883 7.93444Z" fill="black"/>
</svg>
