<svg width="294" height="301" viewBox="0 0 294 301" fill="none" xmlns="http://www.w3.org/2000/svg">
<g style="mix-blend-mode:multiply">
<path d="M58.5635 153.546C58.5635 132.25 64.9235 111.432 76.8393 93.7245C88.7551 76.0175 105.691 62.2168 125.506 54.0677C145.322 45.9187 167.125 43.7873 188.16 47.9431C209.195 52.0989 228.517 62.3552 243.681 77.4149C258.846 92.4747 269.172 111.662 273.354 132.549C277.537 153.436 275.387 175.086 267.178 194.761C258.968 214.435 245.067 231.25 227.233 243.08C209.399 254.909 188.432 261.221 166.985 261.218C138.228 261.215 110.651 249.869 90.3184 229.677C69.9859 209.484 58.5635 182.1 58.5635 153.546Z" fill="#A0C8EF"/>
</g>
<g style="mix-blend-mode:multiply">
<path d="M0.527344 297.799L18.7076 280.006L21.9195 283.119L3.73919 300.926L0.527344 297.799ZM26.1464 272.718L44.3267 254.926L47.5537 258.039L29.3734 275.846L26.1464 272.718ZM51.7654 247.638L69.0822 230.672L72.3092 233.785L54.9924 250.677L51.7654 247.549V247.638Z" fill="#91C2F2"/>
</g>
<g style="mix-blend-mode:multiply">
<path d="M2.05469 276.309L20.2879 258.577L23.4089 261.875L5.17568 279.546L2.05469 276.309ZM27.7992 251.278L46.0324 233.547L49.1384 236.784L30.9202 254.501L27.7992 251.278ZM53.5287 226.248L59.9798 219.982L63.1456 223.22L56.7095 229.47L53.5885 226.248H53.5287Z" fill="#91C2F2"/>
</g>
<g style="mix-blend-mode:multiply">
<path d="M157.836 24.4911V0.0546875H162.418V24.4911H157.836Z" fill="#91C2F2"/>
</g>
<g style="mix-blend-mode:multiply">
<path d="M170.055 24.4911V0.0546875H174.637V24.4911H170.055Z" fill="#91C2F2"/>
</g>
<g style="mix-blend-mode:multiply">
<path d="M152.886 272.392L153.229 270.245C157.623 270.812 162.046 271.131 166.476 271.199V273.436C161.986 273.36 157.504 273.036 153.05 272.467L152.886 272.392ZM176.754 270.901C181.181 270.604 185.589 270.061 189.956 269.275L190.344 271.468C185.903 272.275 181.421 272.833 176.918 273.138L176.754 270.901ZM129.451 267.039L130.167 264.921C134.371 266.331 138.648 267.511 142.981 268.455L142.503 270.647C138.09 269.685 133.732 268.48 129.451 267.039ZM200.04 267.039C204.318 265.88 208.526 264.481 212.646 262.848L213.466 264.936C209.268 266.596 204.98 268.02 200.622 269.201L200.04 267.039ZM107.552 257.167L108.671 255.243C112.536 257.449 116.52 259.44 120.605 261.208L119.71 263.251C115.567 261.438 111.528 259.397 107.611 257.137L107.552 257.167ZM222.118 258.658C226.077 256.669 229.926 254.469 233.649 252.067L234.873 253.946C231.078 256.393 227.154 258.633 223.118 260.656L222.118 258.658ZM88.0098 243.179L89.5016 241.494C92.8258 244.422 96.3121 247.16 99.9438 249.696L98.6758 251.53C94.966 248.95 91.405 246.162 88.0098 243.179ZM242.078 246.087C245.578 243.361 248.929 240.449 252.117 237.364L253.609 238.974C250.364 242.113 246.953 245.075 243.391 247.847L242.018 246.087H242.078ZM71.5409 225.509L73.3161 224.152C76.0228 227.659 78.916 231.019 81.9831 234.217L80.372 235.708C77.244 232.472 74.2958 229.067 71.5409 225.509ZM259.143 229.759C262.043 226.427 264.762 222.943 267.288 219.32L269.123 220.603C266.558 224.316 263.789 227.886 260.829 231.294L259.143 229.803V229.759ZM58.8461 205.139L60.8599 204.155C62.8242 208.126 65.0003 211.988 67.3789 215.726L65.4993 216.934C63.0642 213.129 60.843 209.191 58.8461 205.139ZM272.823 210.492C275.036 206.632 277.028 202.649 278.79 198.563L280.848 199.442C279.051 203.588 277.034 207.635 274.807 211.566L272.853 210.447L272.823 210.492ZM50.4177 182.651L52.5807 182.07C53.719 186.353 55.0936 190.569 56.698 194.7L54.6244 195.506C52.9769 191.305 51.5723 187.013 50.4177 182.651ZM282.43 188.929C283.822 184.723 284.978 180.441 285.89 176.105L288.083 176.567C287.139 181.015 285.944 185.406 284.503 189.72L282.385 189.004L282.43 188.929ZM46.5839 158.911L48.8215 158.777C49.0669 163.201 49.565 167.607 50.3133 171.974L48.1055 172.362C47.3276 167.922 46.7997 163.441 46.5242 158.941L46.5839 158.911ZM287.591 165.86C288.121 161.461 288.41 157.035 288.456 152.604H290.709C290.653 157.091 290.349 161.571 289.799 166.024L287.591 165.756V165.86ZM46.3452 151.247C46.345 146.733 46.594 142.223 47.0911 137.736L49.3138 137.975C48.8217 142.382 48.5776 146.813 48.5828 151.247H46.3452ZM286.517 129.147L288.71 128.729C289.536 133.168 290.118 137.648 290.455 142.15L288.218 142.314C287.895 137.897 287.328 133.501 286.517 129.147ZM48.6873 127.328C49.5647 122.899 50.6903 118.523 52.0586 114.22L54.1918 114.891C52.8521 119.117 51.7465 123.413 50.8801 127.76L48.6873 127.313V127.328ZM279.909 106.451L281.982 105.616C283.672 109.801 285.126 114.078 286.338 118.425L284.175 119.037C282.995 114.763 281.571 110.561 279.909 106.451ZM55.6836 104.318C57.4485 100.151 59.4404 96.0843 61.6506 92.1353L63.6197 93.2239C61.4648 97.0871 59.5324 101.07 57.8317 105.154L55.7582 104.289L55.6836 104.318ZM268.914 85.5889L270.779 84.3661C273.258 88.1389 275.524 92.0469 277.567 96.0721L275.568 97.0861C273.561 93.1356 271.34 89.2976 268.914 85.5889ZM67.0805 83.1582C69.5962 79.4058 72.3256 75.801 75.2553 72.3619L76.9559 73.8531C74.0891 77.2292 71.4146 80.764 68.9452 84.4407L67.0805 83.1881V83.1582ZM254.101 67.2173L255.697 65.6515C258.861 68.8785 261.849 72.2734 264.648 75.8215L262.888 77.1934C260.145 73.7135 257.217 70.3833 254.116 67.2173H254.101ZM82.4008 64.6225C85.6007 61.4574 88.9721 58.4705 92.5 55.6753L93.9022 57.42C90.4317 60.1791 87.115 63.1261 83.9672 66.248L82.4754 64.6673L82.4008 64.6225ZM236.051 52.0816L237.319 50.2324C241.048 52.7765 244.634 55.5245 248.06 58.4639L246.568 60.1639C243.195 57.2822 239.669 54.5842 236.006 52.0816H236.051ZM102.331 51.2912L101.018 49.4272C104.783 46.9335 108.682 44.6484 112.698 42.5826L113.728 44.5659C109.779 46.5887 105.949 48.8341 102.256 51.2912H102.331ZM215.331 40.7782L216.196 38.7204C220.353 40.4888 224.411 42.4799 228.354 44.6852L227.265 46.6386C223.397 44.4683 219.413 42.5119 215.331 40.7782ZM122.335 38.1686C126.514 36.4372 130.787 34.9436 135.134 33.695L135.746 35.8423C131.481 37.0533 127.288 38.502 123.185 40.1817L122.335 38.109V38.1686ZM192.775 33.7845L193.223 31.5924C197.649 32.4997 202.021 33.6497 206.321 35.0371L205.634 37.1695C201.415 35.802 197.122 34.6719 192.775 33.7845ZM145.383 31.3091C149.821 30.4623 154.303 29.86 158.808 29.5047L158.987 31.7266C154.567 32.0784 150.169 32.6758 145.815 33.516L145.397 31.3091H145.383ZM169.251 31.3091V29.0723C173.767 29.0909 178.279 29.3597 182.766 29.8775L182.512 32.0994C178.109 31.5949 173.682 31.331 169.251 31.3091Z" fill="#A0C8EF"/>
</g>
<g style="mix-blend-mode:multiply">
<path d="M167.764 44.3457C146.468 44.3457 125.65 50.7054 107.944 62.6205C90.2371 74.5357 76.4365 91.4711 68.287 111.285C60.1375 131.099 58.0052 152.902 62.1598 173.937C66.3143 194.971 76.5692 214.293 91.6275 229.458C106.686 244.623 125.871 254.951 146.758 259.135C167.644 263.319 189.294 261.171 208.968 252.964C228.643 244.757 245.459 230.858 257.29 213.026C269.121 195.194 275.436 174.229 275.436 152.782C275.436 124.023 264.092 96.4417 243.9 76.106C223.707 55.7702 196.32 44.3457 167.764 44.3457ZM167.764 255.427C147.605 255.427 127.9 249.407 111.139 238.128C94.3779 226.849 81.3143 210.818 73.6001 192.062C65.8859 173.307 63.8675 152.668 67.8002 132.757C71.7328 112.846 81.4399 94.5564 95.694 80.2013C109.948 65.8462 128.109 56.0702 147.88 52.1096C167.65 48.1491 188.144 50.1818 206.767 57.9508C225.391 65.7197 241.309 78.8759 252.508 95.7557C263.708 112.636 269.685 132.481 269.685 152.782C269.681 180.002 258.942 206.107 239.828 225.353C220.714 244.599 194.792 255.412 167.764 255.412V255.427Z" fill="#A0C8EF"/>
</g>
<path d="M108.837 157.363H82.8955C73.3891 158.504 67.7271 172.294 67.7271 188.785C67.7271 205.276 73.9255 218.796 83.4319 219.891V219.981H108.3V219.846C117.822 218.706 122.709 205.216 122.709 188.74C122.709 172.264 118.343 158.504 108.837 157.363Z" fill="black"/>
<path d="M119.654 188.68C119.654 200.899 117.956 210.818 115.843 210.818C113.73 210.818 112.018 200.899 112.018 188.68C112.018 176.462 113.73 166.527 115.843 166.527C117.956 166.527 119.654 176.447 119.654 188.68Z" fill="black"/>
<path d="M119.655 187.917C119.655 198.035 118.295 206.237 116.6 206.237C114.905 206.237 113.545 198.035 113.545 187.917C113.545 177.799 114.905 169.582 116.6 169.582C118.295 169.582 119.655 177.784 119.655 187.917Z" fill="#9E9898"/>
<path d="M144.091 109.298L143.193 171.108H134.982C134.982 171.108 134.188 125.807 138.632 113.448C141.354 105.773 144.091 109.298 144.091 109.298Z" fill="black"/>
<path d="M235.29 109.269L235.727 170.49L228.596 171.108C228.596 171.108 226.614 125.62 230.501 113.379C232.895 105.837 235.29 109.269 235.29 109.269Z" fill="black"/>
<path d="M235.727 118.926C235.737 119.354 235.657 119.779 235.493 120.178C235.33 120.577 235.084 120.94 234.772 121.248C234.46 121.556 234.086 121.802 233.674 121.972C233.261 122.142 232.817 122.232 232.367 122.237H142.869C142.42 122.23 141.977 122.138 141.565 121.968C141.153 121.798 140.781 121.552 140.469 121.244C140.157 120.937 139.912 120.574 139.747 120.176C139.583 119.778 139.502 119.353 139.51 118.926V105.694C139.502 105.267 139.583 104.842 139.747 104.444C139.912 104.047 140.157 103.684 140.469 103.376C140.781 103.069 141.153 102.823 141.565 102.652C141.977 102.482 142.42 102.39 142.869 102.383H232.367C232.817 102.388 233.261 102.479 233.674 102.648C234.086 102.818 234.46 103.064 234.772 103.372C235.084 103.68 235.33 104.044 235.493 104.442C235.657 104.841 235.737 105.266 235.727 105.694V118.926Z" fill="black"/>
<path d="M228.091 117.92C228.06 118.685 227.724 119.408 227.158 119.93C226.592 120.452 225.842 120.731 225.069 120.707H144.059C143.286 120.731 142.535 120.452 141.969 119.93C141.403 119.408 141.068 118.685 141.037 117.92V106.697C141.068 105.931 141.403 105.208 141.969 104.686C142.535 104.164 143.286 103.885 144.059 103.91H225.069C225.842 103.885 226.592 104.164 227.158 104.686C227.724 105.208 228.06 105.931 228.091 106.697V117.92Z" fill="black"/>
<path d="M144.073 120.707H225.069C225.842 120.732 226.593 120.439 227.159 119.892C227.725 119.345 228.06 118.588 228.091 117.785V113.072H141.037V117.785C141.068 118.59 141.405 119.35 141.975 119.898C142.544 120.446 143.298 120.736 144.073 120.707Z" fill="#EDC006"/>
<path d="M100.967 170.219C100.967 170.219 128.188 163.277 138.939 155.393C145.882 150.276 156.857 137.934 158.26 129.316C159.664 120.699 174.014 128.598 174.014 128.598L176.164 180.273H95.2183C95.2183 180.273 98.8168 169.576 100.967 170.219Z" fill="#7C0000"/>
<path style="mix-blend-mode:multiply" d="M159.801 145.145L127.291 175.45L155.869 181.799L168.527 164.31L159.801 145.145Z" fill="url(#paint0_linear_2753_2742)"/>
<path d="M80.1944 168.055H52.0984C41.7472 169.321 35.6548 184.438 35.6548 202.524C35.6548 220.61 42.3387 235.441 52.6899 236.692V236.782H79.6177V236.692C89.9689 235.441 95.2184 220.64 95.2184 202.569C95.2184 184.498 90.5012 169.366 80.1944 168.055Z" fill="black"/>
<path d="M80.8358 168.055H80.062H52.2677H51.4787C43.0737 169.071 37.8243 179.249 35.6548 192.491H95.2184C93.0641 179.295 89.2408 169.117 80.8358 168.055Z" fill="#302F2F"/>
<path d="M92.1636 202.419C92.1636 215.483 90.1191 226.092 87.5892 226.092C85.0592 226.092 83 215.498 83 202.419C83 189.34 85.0445 178.746 87.5892 178.746C90.1338 178.746 92.1636 189.369 92.1636 202.419Z" fill="black"/>
<path d="M92.1638 203.183C92.1638 214.142 90.7496 223.037 89.1092 223.037C87.4688 223.037 86.0547 214.127 86.0547 203.183C86.0547 192.238 87.4688 183.328 89.1092 183.328C90.7496 183.328 92.1638 192.208 92.1638 203.183Z" fill="#9E9898"/>
<path d="M90.8045 178.284C89.3044 192.49 98.3052 206.325 99.0702 227.619H240.832L249.473 177.219L90.8045 178.284Z" fill="black"/>
<path d="M187.865 97.8005H155.266C153.7 97.8005 156.3 91.6914 157.867 91.6914H185.501C187.082 91.6914 189.432 97.8005 187.865 97.8005Z" fill="black"/>
<path d="M174.636 93.2188H168.527V113.073H174.636V93.2188Z" fill="black"/>
<path d="M172.58 104.239C172.58 104.239 175.739 102.723 181.401 106.179C186.408 109.211 189.984 116.123 189.745 129.446C189.507 141.996 212.096 160.23 222.839 165.323C233.582 170.416 257.109 174.766 257.109 174.766V181.314L171.582 181.799L172.58 104.239Z" fill="#CC0000"/>
<path d="M185.327 121.479C185.327 131.18 178.478 139.035 170.047 139.035C161.616 139.035 154.782 131.18 154.782 121.479C154.782 111.779 161.616 103.908 170.047 103.908C178.478 103.908 185.327 111.809 185.327 121.479Z" fill="#7C0000"/>
<path d="M180.745 120.716C180.745 127.46 176.296 132.927 170.818 132.927C165.34 132.927 160.891 127.46 160.891 120.716C160.891 113.973 165.34 108.49 170.818 108.49C176.296 108.49 180.745 113.957 180.745 120.716Z" fill="black"/>
<path d="M153.818 161.063C156.407 170.221 161.495 173.71 170.177 172.355C178.859 171 182.498 169.162 183.696 158.337C184.731 148.992 177.942 141.547 167.426 142.123C158.034 142.637 151.2 151.718 153.818 161.063Z" fill="white"/>
<path d="M163.447 163.545C161.991 166.098 153.254 161.945 153.254 161.945C153.254 161.945 154.419 173.056 155.759 174.431C157.098 175.806 159.865 176.549 162.675 177.012C165.486 177.475 165.689 177.012 165.689 177.012L167 164.386L163.447 163.545Z" fill="#EDA400"/>
<path d="M169.399 164.965C171.103 167.622 183.8 163.473 183.8 163.473C183.8 163.473 182.096 173.92 180.837 175.413C179.577 176.906 173.162 177.906 170.347 178.503C168.737 178.858 167.066 178.823 165.473 178.398L166.376 163.98L169.399 164.965Z" fill="#EDC006"/>
<path d="M153.254 156.277L154.63 168.054C159.258 166.486 164.181 165.978 169.034 166.567C178.547 167.534 178.412 167.786 179.295 167.652C180.177 167.519 183.707 166.686 183.782 164.262C183.856 161.838 183.677 156.485 183.677 156.485C183.677 156.485 175.63 152.694 168.436 152.783C161.241 152.872 154.152 154.701 153.254 156.277Z" fill="black"/>
<path d="M151.727 155.036L153.255 166.527C158.024 164.932 163.105 164.423 168.107 165.038C177.825 166.021 177.795 166.333 178.696 166.199C179.598 166.065 183.28 165.291 183.387 162.865C183.494 160.439 183.8 155.006 183.8 155.006C183.8 155.006 174.876 151.166 167.511 151.255C160.146 151.345 152.644 153.414 151.727 155.036Z" fill="#9E9898"/>
<path d="M183.245 163.209C183.158 165.57 179.481 166.367 178.634 166.497C178.007 166.584 178.547 166.497 174.636 166.005C175.074 161.935 175.672 156.257 175.993 152.781C178.727 153.354 181.358 154.331 183.8 155.678C183.8 155.678 183.333 160.849 183.245 163.209Z" fill="#B5B1B1"/>
<path d="M183.8 155.266C181.839 154.514 174.462 153.362 169.468 152.962C164.639 152.468 159.734 152.84 155.106 154.053C153.852 154.311 152.77 154.95 152.089 155.836L151.727 155.096C151.727 155.096 152.557 150.645 167.296 151.324C176.619 151.761 178.429 152.537 181.25 153.75C182.146 154.203 182.998 154.71 183.8 155.266Z" fill="black"/>
<path style="mix-blend-mode:screen" opacity="0.5" d="M154.782 154.434L156.653 166.376C156.653 166.376 167.57 164.87 174.604 166.527C175.68 159.388 176.164 154.118 176.164 154.118C176.164 154.118 164.872 150.91 154.782 154.434Z" fill="url(#paint1_linear_2753_2742)"/>
<path d="M257.109 178.915C257.109 180.351 255.823 180.27 254.237 180.27H93.5083C91.9227 180.27 90.6362 180.405 90.6362 178.915V176.313C90.6362 174.877 99.0878 171.109 100.673 171.109H247.057C248.642 171.109 257.109 174.877 257.109 176.313V178.915Z" fill="#EDC006"/>
<path d="M281.016 157.363H255.329C245.916 158.504 240.309 172.294 240.309 188.785C240.309 205.276 246.447 218.796 255.86 219.891V219.981H280.485V219.846C289.913 218.706 293.764 205.216 293.764 188.74C293.764 172.264 290.429 158.504 281.016 157.363Z" fill="black"/>
<path d="M292.236 188.68C292.236 200.899 290.538 210.818 288.425 210.818C286.312 210.818 284.6 200.899 284.6 188.68C284.6 176.462 286.312 166.527 288.425 166.527C290.538 166.527 292.236 176.447 292.236 188.68Z" fill="black"/>
<path d="M292.237 187.917C292.237 198.035 290.877 206.237 289.182 206.237C287.487 206.237 286.127 198.035 286.127 187.917C286.127 177.799 287.487 169.582 289.182 169.582C290.877 169.582 292.237 177.784 292.237 187.917Z" fill="#B5B1B1"/>
<path d="M179.218 187.908L177.201 225.382L173.838 226.09L171.582 189.323L179.218 187.908Z" fill="#302F2F"/>
<path d="M136.455 188.088L141.41 226.09H144.091L143.417 187.908L136.455 188.088Z" fill="#302F2F"/>
<path d="M247.92 211.154C247.736 211.609 247.381 211.976 246.929 212.178C246.477 212.379 245.964 212.399 245.498 212.234L179.496 198.639C178.329 198.402 177.537 197.529 177.716 196.686C177.881 195.842 178.972 195.369 180.139 195.606L246.141 209.246C247.307 209.482 248.1 210.355 247.92 211.199V211.154Z" fill="#302F2F"/>
<path d="M250.975 197.424C250.785 197.872 250.43 198.232 249.98 198.432C249.53 198.631 249.02 198.655 248.553 198.498L182.565 184.929C181.398 184.693 180.591 183.825 180.771 182.986C180.957 182.532 181.315 182.167 181.77 181.967C182.224 181.766 182.739 181.747 183.207 181.912L249.196 195.466C250.347 195.717 251.155 196.585 250.975 197.424Z" fill="#302F2F"/>
<path d="M87.6115 208.309C87.6423 208.477 87.7113 208.637 87.8138 208.778C87.9162 208.919 88.0496 209.037 88.2049 209.124C88.3602 209.211 88.5336 209.266 88.7132 209.284C88.8928 209.302 89.0744 209.283 89.2455 209.228L139.563 198.285C139.986 198.221 140.368 198.012 140.64 197.699C140.911 197.386 141.052 196.991 141.035 196.586C140.983 196.396 140.889 196.219 140.759 196.066C140.629 195.912 140.466 195.787 140.281 195.698C140.096 195.608 139.893 195.557 139.686 195.547C139.478 195.537 139.271 195.568 139.077 195.639L88.9364 206.778C88.5545 206.854 88.2118 207.052 87.9654 207.338C87.719 207.624 87.5837 207.982 87.582 208.351L87.6115 208.309Z" fill="#302F2F"/>
<path d="M84.5426 195.951C84.5831 196.149 84.6649 196.335 84.7823 196.498C84.8997 196.661 85.0501 196.796 85.2233 196.895C85.3965 196.993 85.5884 197.052 85.7861 197.069C85.9838 197.085 86.1827 197.058 86.3692 196.99L142.431 183.445C142.901 183.38 143.332 183.14 143.638 182.77C143.945 182.401 144.106 181.929 144.09 181.446C144.022 181.226 143.911 181.023 143.762 180.849C143.614 180.675 143.432 180.535 143.227 180.436C143.023 180.337 142.801 180.282 142.575 180.274C142.349 180.267 142.123 180.307 141.913 180.392L86.0496 194.169C85.6209 194.246 85.2329 194.475 84.9542 194.815C84.6756 195.156 84.5244 195.586 84.5274 196.029L84.5426 195.951Z" fill="#302F2F"/>
<path d="M265.797 168.055H237.204C226.67 169.322 220.455 184.448 220.455 202.547C220.455 220.645 227.287 235.44 237.776 236.691V236.782H265.21V236.691C275.744 235.44 280.018 220.629 280.018 202.547C280.018 184.464 276.286 169.367 265.797 168.055Z" fill="black"/>
<path d="M265.647 168.055H264.899H238.037H237.275C229.152 169.071 224.079 179.249 221.982 192.491H278.491C277.67 179.295 273.77 169.117 265.647 168.055Z" fill="#302F2F"/>
<path d="M278.491 202.419C278.491 215.483 276.435 226.092 273.909 226.092C271.383 226.092 269.327 215.498 269.327 202.419C269.327 189.34 271.383 178.746 273.909 178.746C276.435 178.746 278.491 189.369 278.491 202.419Z" fill="black"/>
<path d="M278.491 203.183C278.491 214.142 277.077 223.037 275.436 223.037C273.796 223.037 272.382 214.127 272.382 203.183C272.382 192.238 273.796 183.328 275.436 183.328C277.077 183.328 278.491 192.208 278.491 203.183Z" fill="#B5B1B1"/>
<path d="M93.9567 192.49H88.8436C87.3033 192.49 86.0547 193.8 86.0547 195.417V212.473C86.0547 214.089 87.3033 215.399 88.8436 215.399H93.9567C95.4969 215.399 96.7456 214.089 96.7456 212.473V195.417C96.7456 193.8 95.4969 192.49 93.9567 192.49Z" fill="#302F2F"/>
<path d="M52.4525 212.346H35.6568C33.9686 212.346 32.6001 213.62 32.6001 215.193V223.244C32.6001 224.817 33.9686 226.091 35.6568 226.091H52.4525C54.1407 226.091 55.5092 224.817 55.5092 223.244V215.193C55.5092 213.62 54.1407 212.346 52.4525 212.346Z" fill="#EDA400"/>
<path d="M113.545 223.209C113.541 223.975 113.239 224.708 112.703 225.248C112.168 225.788 111.444 226.091 110.689 226.091H50.7292C49.9741 226.091 49.2498 225.788 48.7145 225.248C48.1792 224.708 47.8765 223.975 47.8726 223.209V215.243C47.8726 214.474 48.1735 213.737 48.7092 213.194C49.245 212.651 49.9716 212.346 50.7292 212.346H103.547C105.124 212.346 113.545 223.209 113.545 223.209Z" fill="#7C0000"/>
<path d="M258.838 212.346H243.162C241.586 212.346 240.309 213.62 240.309 215.193V223.244C240.309 224.817 241.586 226.091 243.162 226.091H258.838C260.414 226.091 261.691 224.817 261.691 223.244V215.193C261.691 213.62 260.414 212.346 258.838 212.346Z" fill="#EDC006"/>
<path d="M186.854 223.194C186.854 223.96 187.149 224.695 187.675 225.237C188.2 225.78 188.913 226.087 189.658 226.091H245.127C245.875 226.091 246.591 225.786 247.12 225.243C247.648 224.699 247.945 223.963 247.945 223.194V215.243C247.945 214.474 247.648 213.737 247.12 213.194C246.591 212.651 245.875 212.346 245.127 212.346H196.689C195.221 212.346 186.854 223.194 186.854 223.194Z" fill="#CC0000"/>
<path d="M263.218 226.855C263.218 228.119 262.619 229.146 261.9 229.146H33.903C33.1842 229.146 32.6001 228.119 32.6001 226.855C32.6001 225.592 33.1842 224.564 33.903 224.564H261.9C262.619 224.564 263.218 225.592 263.218 226.855Z" fill="#302F2F"/>
<path d="M216.166 155.836H200.306C198.781 155.836 197.545 156.978 197.545 158.386V160.922C197.545 162.331 198.781 163.472 200.306 163.472H216.166C217.691 163.472 218.927 162.331 218.927 160.922V158.386C218.927 156.978 217.691 155.836 216.166 155.836Z" fill="black"/>
<path d="M177.691 171.159H199.223V160.418H202.127V174.163H177.691V171.159Z" fill="black"/>
<path d="M118.127 160.927C118.126 161.26 118.195 161.591 118.333 161.9C118.47 162.209 118.673 162.489 118.929 162.726C119.185 162.962 119.489 163.15 119.824 163.278C120.159 163.406 120.518 163.472 120.881 163.472H136.741C137.475 163.472 138.179 163.204 138.698 162.727C139.218 162.249 139.509 161.602 139.509 160.927V158.381C139.509 157.706 139.218 157.059 138.698 156.581C138.179 156.104 137.475 155.836 136.741 155.836H120.881C120.518 155.836 120.159 155.902 119.824 156.03C119.489 156.158 119.185 156.346 118.929 156.582C118.673 156.819 118.47 157.1 118.333 157.408C118.195 157.717 118.126 158.048 118.127 158.381V160.927Z" fill="black"/>
<path d="M134.927 174.163V160.418H137.831V171.159L159.364 171.174V174.163H134.927Z" fill="black"/>
<path style="mix-blend-mode:multiply" d="M180.745 191.053L150.093 223.037H110.491L136.897 191.764C136.897 191.764 156.064 184.638 163.539 186.786C171.014 188.935 180.745 191.053 180.745 191.053Z" fill="url(#paint2_linear_2753_2742)"/>
<path d="M144.42 175.125C148.723 174.374 181.637 165.109 186.836 172.302C187.15 172.752 183.4 193.835 179.545 192.423C156.611 184.014 138.13 193.73 137.263 191.222C133.439 180.185 144.42 175.125 144.42 175.125Z" fill="#7C0000"/>
<path d="M147.294 170.736C151.201 170.154 177.528 167.856 185.327 172.038C185.327 172.038 182.442 191.74 175.695 189.213C153.966 181.031 136.865 190.346 136.625 188.263C134.867 177.477 147.294 170.736 147.294 170.736Z" fill="#CC0000"/>
<defs>
<linearGradient id="paint0_linear_2753_2742" x1="115.601" y1="205.697" x2="178.997" y2="137.887" gradientUnits="userSpaceOnUse">
<stop offset="0.12" stop-color="white"/>
<stop offset="0.2" stop-color="#FBFBFB"/>
<stop offset="0.28" stop-color="#EEEEEE"/>
<stop offset="0.36" stop-color="#D9D9D9"/>
<stop offset="0.44" stop-color="#BCBCBC"/>
<stop offset="0.52" stop-color="#969696"/>
<stop offset="0.61" stop-color="#696969"/>
<stop offset="0.62" stop-color="#646464"/>
</linearGradient>
<linearGradient id="paint1_linear_2753_2742" x1="157.113" y1="163.403" x2="174.945" y2="163.843" gradientUnits="userSpaceOnUse">
<stop offset="0.14" stop-color="white"/>
<stop offset="0.18" stop-color="#CCCCCC"/>
<stop offset="0.21" stop-color="#9D9D9D"/>
<stop offset="0.25" stop-color="#737373"/>
<stop offset="0.3" stop-color="#4F4F4F"/>
<stop offset="0.34" stop-color="#323232"/>
<stop offset="0.39" stop-color="#1C1C1C"/>
<stop offset="0.44" stop-color="#0C0C0C"/>
<stop offset="0.49" stop-color="#030303"/>
<stop offset="0.57"/>
<stop offset="0.61" stop-color="#040404"/>
<stop offset="0.65" stop-color="#111111"/>
<stop offset="0.69" stop-color="#252525"/>
<stop offset="0.73" stop-color="#434343"/>
<stop offset="0.78" stop-color="#686868"/>
<stop offset="0.82" stop-color="#969696"/>
<stop offset="0.86" stop-color="#CBCBCB"/>
<stop offset="0.9" stop-color="white"/>
</linearGradient>
<linearGradient id="paint2_linear_2753_2742" x1="135.378" y1="229.911" x2="169.158" y2="155.189" gradientUnits="userSpaceOnUse">
<stop offset="0.12" stop-color="white"/>
<stop offset="0.2" stop-color="#FBFBFB"/>
<stop offset="0.28" stop-color="#EEEEEE"/>
<stop offset="0.36" stop-color="#D9D9D9"/>
<stop offset="0.44" stop-color="#BCBCBC"/>
<stop offset="0.52" stop-color="#969696"/>
<stop offset="0.61" stop-color="#696969"/>
<stop offset="0.62" stop-color="#646464"/>
</linearGradient>
</defs>
</svg>
